<svg version="1" xmlns="http://www.w3.org/2000/svg" width="1365.333" height="1365.333" viewBox="0 0 1024.000000 1024.000000"><path d="M197.2 17.5c-19.2 4.6-36 20.2-49.9 46.5-4.8 9.1-13 29-17.2 42-2.6 8.1-6.3 24.8-6.4 28.7 0 .7-.3 1.3-.6 1.3s-.6 1.7-.7 3.8c-.1 3.5-1 12.4-2 20.2-.3 1.9-.6 6.1-.7 9.2-.1 3.2-.4 5.8-.7 5.8-.3 0-.6 4.4-.6 9.8-.1 5.3-.3 14.5-.3 20.5-.2 8-.5 10.6-1.4 10-.9-.5-.9-.3-.1.8 1.2 1.7 1.2 14.8 0 16.8-.6.9-.5 1.2.2.8.7-.5 1 .9 1 3.8-.1 2.5-.6 4.5-1.2 4.5-.8 0-.8.3 0 .8.7.4 1.1 3.2 1 6.7-.1 5.6-.5 6.5-5.7 13.5-22.9 30.9-46.3 70.7-61.4 104-7 15.5-7.5 16.6-11.3 26.5-7.7 19.9-8.1 21-16.9 48.5-.2.8-.4 1.6-.4 1.7 0 .2-.5 1.7-1 3.5-1.1 3.7-1.2 3.9-3.4 12.3-1.6 5.8-2 11.9-.9 13.7.3.4-.1.8-.8.8-.9 0-.9.3-.2.8 1 .6 2.7 4.3 2.4 5-.1.2 1 1.4 2.4 2.7 1.4 1.3 2.6 3.1 2.6 3.9 0 .8.4 1.8 1 2.1.6.4.7-.1.4-1.2-.5-1.3-.2-1.2 1 .5 1.1 1.4 1.5 3 1.1 4.5-.7 2.2-.7 2.2.9.2 1.4-1.8 1.5-1.9 1.6-.2 0 1 .4 1.6.9 1.2.5-.3 1.3 0 1.7.6.5.8.3.9-.6.4-.9-.5-1.1-.4-.6.3.4.7 1.4 1.2 2.2 1.2.8 0 1.3.4.9.9-.3.6.3 1.5 1.5 2.1 1.1.6 3 2.6 4.3 4.5 1.3 1.9 2.7 3.2 3.2 2.7.4-.4.5.1.2 1.1-.4 1-.3 1.6.2 1.3 1-.6 9.1 7.8 9.1 9.3 0 .6-.8 1.5-1.7 2-1 .6-1.3 1.1-.6 1.1.6 0 1.5-.5 1.8-1 1-1.6 2.5-1.2 2.5.7 0 .9.3 1.4.6 1 .9-.9 3.2 1.6 2.7 2.9-.2.7.1 1.5.8 2 .8.5 1 .3.5-.7-.5-.8 1.3.8 3.8 3.6 2.5 2.7 4.5 5.6 4.6 6.4 0 .8.3 1.1.6.8.7-.7 7.4 7.2 7.4 8.8 0 .5-.5.3-1.1-.5-.9-1.3-1-1.3-.6 0 .2.8 1 1.4 1.7 1.2.7-.1 1.8.3 2.6.9 1.7 1.4 1.9 5.3.2 4.3-.7-.4-.8-.3-.4.5.6.9 1.1.9 2.1.1s1.8-.4 3.4 1.7c1.1 1.5 2.6 3.4 3.1 4.1.6.7.8 1.7.5 2.2-.3.6.4 1 1.7 1.1 2.2 0 2.2.1.3.9-1.9.8-1.9.9.2.9 2.4.1 4 1.7 2.1 2.3-1.4.5-2 3.8-.6 3.8.6 0 .7-.7.4-1.6-.4-1.1-.1-1.4 1.1-1.2 1.1.2 1.8 1.4 2 3.1.2 2.6 0 2.7-1.5 1.5-1.5-1.2-1.6-1.1-.3.4 1.5 2 3.5 1.4 2.7-.8-.3-.8-.1-1.4.4-1.4s1.2.9 1.5 2c.3 1.1 1.1 2 1.6 2s1.3.8 1.6 1.7c.4 1 1.7 2.7 3 3.9 1.3 1.2 2.3 2.6 2.3 3.2 0 .6.5 1.2 1.2 1.4.6.2.8 1 .4 1.7-.6.9-1.1.8-2.2-.6-.7-1-1.4-1.3-1.4-.7 0 1.8 2.7 3.7 3.5 2.4 1-1.7 2.1-1.2 3.6 1.7.8 1.6 2.3 3.6 3.4 4.6 1.1 1.1 1.4 1.6.5 1.2-.8-.3-.5.2.8 1.1 2.2 1.7 3.2 4.1 1 2.8-.7-.4-.8-.3-.4.4.4.6 1.4.8 2.3.5 1.2-.5 1.5-.2 1 .9-.4 1.1.1 1.8 1.4 2.1 1 .3 2.2 1.3 2.6 2.4.4 1 1.5 2.6 2.6 3.5 1.1 1 1.7 2.4 1.4 3.2-.4 1.1-.1 1.3 1.1.9 1.4-.5 1.4-.3-.3 1.8-1.8 2.1-1.8 2.2-.1.9 1.7-1.3 2-1.2 3.5.9.9 1.2 2.6 3.2 3.9 4.4l2.2 2.1-2.2 2.5c-1.3 1.4-1.6 2-.6 1.3.9-.7 1.8-.9 2-.5.3.4.3.2.2-.4-.5-2.1.7-1.5 3 1.4 1.1 1.5 2 3.3 1.8 4-.2.8.3 1.2.9 1.1.7-.2 1.8.7 2.4 1.9.7 1.3 1.5 2 1.9 1.6.4-.4.4 0 0 1-.4 1.2-.1 1.7 1.1 1.7 1.1 0 1.5.5 1.1 1.6-.3.8-.2 1.3.3 1 .5-.3.8.6.9 1.9 0 1.9-.4 2.3-1.3 1.5-.8-.7-1.2-.6-1.2.4 0 .8.7 1.3 1.6 1.1.9-.1 1.5-1 1.5-1.9-.1-.9.1-1.6.5-1.6 1 0 7.7 10.3 7.3 11.3-.1.5.2.6.7.3 1-.6 4.4 4.1 4.4 6.1 0 .6.5 1.1 1.1 1 .6-.1 1 .6.8 1.6-.2 1 .3 1.6 1 1.5.7-.2 1.2.5 1.2 1.4-.1 1 .1 1.7.5 1.6 2.1-.2 3.1.6 4.2 3.6.7 1.9 1.7 3.2 2.2 2.9.6-.4.8.5.5 2.1-.4 2-.2 2.4.7 1.6.9-.8 1.5-.8 2 0 .3.5.4 1 .1 1-.3 0 .2.9 1.2 1.9 3.8 4.3 4.7 5.6 4.4 6.8-.2.7.4 1.3 1.2 1.3.8 0 1.8.9 2.1 2 .3 1.1 1 2 1.5 2s1.1.8 1.4 1.7c.3 1 1.8 3.1 3.2 4.6 1.9 2.1 2.3 3.2 1.5 4-.8.8-1.1.8-1.1-.2 0-.7-.5-.9-1.1-.5-.8.4-.7.9.2 1.5.7.4 1.8.4 2.4-.1 1.7-1.4 8.8 9 7.4 10.6-.8.9-.4 1.1 1.3.7 1.6-.3 1.9-.2 1 .5-1.1.7-.9 1 .7 1.5 2.6.7 2.8 2.7.2 2.2-1.4-.3-1.8.1-1.4 1.2.3.8.9 1.1 1.2.6.9-1.3 2.6-1 4.5 1 1.5 1.5 1.6 2 .4 3.5-1.1 1.5-1.1 1.6.3.4 1.4-1 1.9-.8 3.3 1.3.9 1.4 1.4 3 1.1 3.5-.9 1.5-2.5.2-1.9-1.4.3-.8.1-1.7-.5-2.1-.7-.4-.8.1-.4 1.2.6 1.6.5 1.6-1 .4-1.5-1.2-1.7-1.2-1.1.3.3.9 1 1.6 1.6 1.6.5 0 .7.4.4.9-.7 1.1 1.3.9 3.1-.2 2-1.2 4.7 3.7 3.4 6.2-.6 1.1-1.1 2.3-1.1 2.8.1.4.7-.3 1.4-1.6 1.3-2.4 1.4-2.4 5.9 4 2.6 3.5 5.1 7 5.7 7.7.6.6.8 1.2.5 1.2-.3 0 .6 1.2 2 2.7 1.4 1.5 2.5 3.2 2.5 3.8 0 .6.9 1.7 2 2.5s2 1.9 2 2.5c.1.5 1.4 2.5 3 4.4 2 2.4 2.6 3.8 2 4.6-.6.8-.4 1.8.6 3.1 1.4 1.8 1.5 1.8.4-.3-1.6-3.5.6-2.8 2.7.7.9 1.7 2.1 3 2.6 3 .4 0 .6.4.3.8-.2.4 1.1 2.5 3 4.7s3.4 4.8 3.4 5.8.3 1.6.8 1.4c.4-.3 3.1 2.9 5.9 7.1 2.9 4.3 6.9 9.9 9 12.7 2 2.7 2.9 4.4 2 3.6-1.5-1.2-1.7-1.2-1.1.3.3.9 1.1 1.6 1.8 1.6.6 0 2.2 1.8 3.6 4s2.8 4 3.2 4c.5 0 .8.9.8 2.1 0 1.1.5 1.7 1 1.4.6-.3 1 .1 1 .9 0 .9.6 1.6 1.3 1.6.8 0 .7.4-.3 1-1.3.8-1.3 1 .2 1 .9 0 2 .5 2.4 1.2.4.6.3.8-.3.5-.6-.4-1.3-.1-1.6.7-.4 1 0 1.2 1.4.9 1.5-.4 2.2 0 2.6 1.6.3 1.1.9 2.1 1.4 2.1.5 0 .9.5.9 1.1 0 .6-.9.8-2 .4-1.1-.3-2-.2-2 .3s1.2.9 2.7.8c1.4 0 2.8.5 3.1 1.3.3.9 0 1.1-.8.6-.9-.5-1.1-.4-.6.4.4.6 1.1.9 1.6.6.5-.3 2.2 1.4 3.7 3.7 1.5 2.4 3 4.5 3.3 4.8.3.3.6 1.3.8 2.4.2 1.2-.1 1.6-.9 1-.8-.4-1-.3-.5.5.6.9 1.1.9 2.1.1.9-.8 1.4-.6 1.9.6.8 2.1.8 2.2-.6 2.7-.7.2-.3.2 1 0 1.2-.2 2.2.2 2.2.8 0 .6 2.1 3.9 4.6 7.5 2.5 3.5 4.2 6.4 3.7 6.4-.4 0 0 .5 1 1.1 1.9 1.1 2.2 3.8.7 5.7-.5.7-.3.6.7-.2 1.4-1.3 1.9-1.1 4.5 2.5 1.5 2.1 2.8 4.3 2.8 4.9 0 .5.4 1 .9 1 1.2 0 2.4 3.2 1.4 3.9-.4.3-.9 1.3-1.1 2.1-.2 1.1.1 1.1 1.1-.3 1.7-2.1 2.3-2.1 3.1-.1.3.8.2 1.2-.4.9-.6-.3-1-.1-1 .4 0 .6.6 1.1 1.3 1.2.6 0 2.3 1.4 3.7 3.2 1.4 1.7 1.9 2.8 1.3 2.4-.8-.5-1.3-.3-1.3.3s-.4.9-.8.6c-.5-.3-.9.1-.9.9 0 1.2.3 1.2 1.5.2.8-.6 1.7-1.1 1.9-1 1.1.4 3.1 3.9 2.7 4.5-.3.5 0 .8.5.8.6 0 1.1.7 1.1 1.5s-.5 1.5-1.2 1.5c-.6 0-.8.3-.5.6.4.4 1.2.2 2-.4 1-.8 1.6-.6 2.5.9 1 1.6 1 1.9-.4 1.9-.9 0-1.2-.5-.8-1.2.4-.7.3-.8-.5-.4-1.5 1-.4 2.6 1.7 2.6 1.6 0 9.6 11 9.2 12.6-.1.4.5 1.1 1.4 1.6 1.3.7 1.4 1.3.5 3.1-.9 1.8-.9 2 .1 1 1-.9 2-.3 4.6 3 4.9 6.2 6.1 8.7 4.5 9.6-1 .6-.9 1 .4 1.4.9.4 1.3.3 1-.3-.3-.6-.1-1 .4-1 .6 0 1.1.5 1.1 1.2 0 .6 1.1 2.6 2.6 4.5 1.4 1.8 2.1 3.3 1.7 3.3-.4 0-.3.4.2.8 1.8 1.3 5 5.6 3.6 4.7-1-.6-1.2-.4-.7.4.4.6.2 2-.5 2.9-1.2 1.6-1.2 1.6.6 0 1.7-1.6 1.9-1.5 3.7.8 1.1 1.3 1.6 2.8 1.3 3.4-.4.6-.1.9.7.8.8-.2 1.2.4 1 1.6-.2 1 .1 1.6.5 1.3.5-.3 1.8.8 2.8 2.6 1 1.8 2.5 3.7 3.3 4.3 1 .7 1.2 1.6.7 2.5-.8 1.2-.6 1.2.8 0 2-1.6 2.3-.2.5 1.9-1.1 1.2-1 1.2.5.1.9-.8 2.1-1.1 2.4-.7.4.4.2 1.1-.6 1.5-1 .7-.9.9.3 1.4.8.3 1.8.1 2.2-.5.5-.7.2-.8-.6-.3-.9.6-1.1.4-.5-.4.5-.9 1-1 1.8-.2.7.7.6 1.6-.4 2.8-1.3 1.6-1.2 1.7.3.5 1.4-1.1 1.7-1 2.3.8.7 2.3 2.6 2.3 3.3-.1.3-1.2.2-1.2-.6 0-.8 1.1-1.2 1-2.1-.8-.8-1.4-.8-2.1-.1-2.1.5 0 1 .5 1 1.1 0 .5.3.8.7.6 1.1-.6 6.6 2.6 6.5 3.8 0 .5-.5 1.1-1.2 1.3-.6.2-.9 0-.8-.5.3-.9-.5-1.3-2.4-1.3-.7 0-.2.7 1 1.6 2.1 1.5 2.5 1.5 4.3-.2 1-.9 2.2-1.4 2.7-.9.4.4.1 1-.6 1.2-.7.3-1.7 1.4-2.4 2.6-.9 1.8-.6 1.7 1.7-.6 2.3-2.2 3-2.5 4.3-1.5.8.7 1.6 1.2 1.6 1 .2-.6 6.1 1.1 7.4 2.1.6.5 1.2.7 1.2.4 0-.3 2.4.2 5.4 1.3 3 1 5.7 1.6 6 1.3.3-.4.6-.1.6.6s.6 1.1 1.4.8c.8-.3 3.1-.1 5.2.5 2.8.7 3.4 1.2 2.3 1.9-.8.5-.9.9-.4.9.6 0 1.6-.5 2.3-1.2.9-.9 1.5-.9 2.3-.1.6.6 1.8.9 2.5.6.8-.3 2.2-.2 3.2.2.9.5 3.2.9 5.1 1 1.9.1 3.7.7 3.9 1.4.3.9.7.9 1.9-.1 1.4-1.1 1.5-1 .9 1-.5 1.4-.3 2.2.4 2.2.6 0 .8-.4.5-1-.3-.5-.1-1 .5-1s.8-.4.5-1c-.3-.5-.1-1 .5-1 .7 0 .9.9.5 2.3-.7 2-.6 2.1.7.4 1-1.3 2.2-1.7 4.3-1.3 1.7.2 4.4.5 6.1.5 3.4.1 6.2 3.9 4.3 5.8-.7.7-.5 1.2.5 1.6 1.1.4 1.3.1.9-1-.5-1.2-.3-1.4.7-.8.9.5.7 0-.3-1.6-1.9-2.6-2.1-3.9-.8-3.9.5 0 1.2.9 1.6 1.9.3 1 1.6 2.1 2.8 2.5 2.1.5 2.1.4-.3-1.4-1.4-1-2.1-2.2-1.7-2.7.5-.4 1.2-.1 1.6.6.7 1.1 1 1.1 1.4 0 .4-1 .6-.9.6.3.1 1 .5 1.8 1.1 1.8.5 0 .7-.8.4-1.8-.4-1.1.1-.8 1.4.8 1.1 1.3 1.8 2.8 1.6 3.2-.3.4 0 .8.5.8 1.4 0 1.4-1.7.1-2.5-.5-.3-1-1.4-.9-2.3 0-.9.2-1.3.5-.7.2.5 3.3 1 6.9.9 3.6 0 6.5.2 6.5.6 0 1.5-1.4 1.9-2.7.9-2.2-1.9-1.5-.2 1.1 2.6 1.7 1.8 2.6 2.2 3.2 1.4.4-.7.3-.9-.3-.6-1.6 1-2.3-1.6-.9-3.4.8-1.1 3-1.5 7.6-1.6 3.6 0 8-.3 9.8-.6 2.6-.4 3.2-.2 2.8.9-.7 1.9.2 1.8 2.2-.2 1.5-1.5 1.7-1.5 2.6.5.5 1.1 1.6 2.1 2.5 2.1 1.4-.1 1.3-.2-.1-1.1-3.1-1.7-2-2.5 3.5-2.4 2.8 0 5.7-.2 6.2-.5 1.1-.6 4.4-.9 12.2-1.3 2.9-.1 5.3-.5 5.3-.8 0-1.7 5.1-1.5 6.6.2 1 1.1 2.2 1.9 2.8 1.9.6 0 .3-.5-.6-1.1-2.6-1.5-2.2-2.6 1.2-3.1 1.7-.3 3.5.1 4.4 1 .8.8 2.2 1.2 3 .9 1.8-.7 2.2-2.7.5-2.7-.5 0-.7.4-.4 1 .3.5-.1 1-.9 1-2.9 0-2.6-1.8.5-2.5 5-1.1 7.9-1.3 8.4-.5.8 1.4-2.2 1.9-3.6.7-1.1-1-1.1-.9 0 .5 1.4 1.8 4.1 1.1 5.7-1.4.4-.7.3-.8-.4-.4s-1.2.3-1.2-.2 2.1-1.4 4.8-2.1c7.2-1.9 8.7-1.8 8.6.1-.1 1 .2 1.5.8 1.2.5-.3.6-1.4.3-2.4-.4-1.3.2-2.1 2.6-2.9 1.7-.6 3.5-.8 4-.5.5.3.9 0 .9-.5 0-.6.5-1.1 1-1.1.7 0 .7.6 0 1.9-.7 1.4-.7 2.2 0 2.6.6.4 1 .3.9-.2-.4-2.4 1.7-5.2 4.8-6.7 3.4-1.6 3.7-1.6 5.7.1 1.1 1 1.8 1.4 1.3.9-.4-.5.1-1.9 1-3 1.8-2.1 1.8-2.1-.4-.2-1.3 1.1-2.3 1.4-2.3.9 0-1.1 6.5-4.6 7.6-4.1.3.2 1-.5 1.5-1.5.6-.9 1.5-1.4 2.1-1.1.7.4.8.2.4-.4-.3-.6.3-1.6 1.4-2.2 1.1-.6 1.8-1.5 1.5-2.1-.4-.5.1-1.2.9-1.5.9-.3 1.6-1.2 1.6-1.9 0-.6 1-1.7 2.3-2.4 1.2-.6 1.4-.9.5-.7-1.2.4-1.5.1-1.1-1 .3-.8 1.2-1.3 2-1 .8.3 1.2.2.8-.3-.8-1.4 3.5-8.2 4.8-7.4.6.4.8 0 .4-1s-.1-1.7.5-1.7.9-.3.5-.6c-.6-.6.1-1.7 3.5-5.4.9-1 1.3-2.2 1-2.6-.4-.4.2-.4 1.2 0 1.5.5 1.7.4.7-.8-1-1.1-.7-1.7 1.1-3 1.2-.9 1.9-1.6 1.5-1.6-.4 0 .5-1.8 1.9-4 1.5-2.2 3-3.7 3.5-3.4.5.3.6-.1.3-.9-.2-.7.8-2.6 2.3-4.2 1.5-1.6 2.1-2.5 1.3-2.1-.8.4-.4-.2 1-1.4s1.8-1.8 1-1.4c-1.6.8.9-2.5 4.5-6.1 1.2-1.1 1.4-1.6.6-1-1.1.8-1.3.7-.5-.5.5-.8 2-3.2 3.3-5.3 1.4-2.3 2.9-3.6 3.7-3.3.7.3 1.6 0 2-.6.4-.7.3-.8-.4-.4s-1.2.1-1.2-.9c0-1.1.5-1.5 1.4-1.2.9.4 1.3 0 1.2-1.1-.3-2 8.3-14.8 9.6-14.4.5.1.7-.2.3-.8-.9-1.5 1.5-5.2 3-4.6 1 .3 1.2 0 .8-1.2-.6-1.5-.5-1.6 1.2-.2 1.7 1.4 1.8 1.4.7-.6-.9-1.8-.7-2.7 1.4-5.5 1.5-2 3.2-3.3 4.2-3.1 1.3.2 1.4.1.3-.6-1.5-1.1-.5-3.6 1-2.6.6.3.9 0 .7-.7-.4-2.1 3.5-8 4.9-7.5.7.3 1-.1.6-1.1-.3-.8-.2-1.8.3-2.2 1.5-1 5.4-6.9 5.4-8.1 0-.6.4-.9.9-.6.5.3 1.1-.4 1.4-1.5.4-1.3 1-1.8 1.8-1.3.8.4 1 .3.5-.4-.4-.6.5-2.9 2-5.2 2.3-3.4 2.9-3.8 4.2-2.8 1.3 1.1 1.4 1 .4-.9-.7-1.3-.8-2.4-.3-2.8.5-.3 1.3.4 1.6 1.6.4 1.1.9 1.8 1.2 1.6.2-.3 0-1.5-.7-2.6-.9-1.8-.6-2.8 2.1-6.6 1.8-2.5 4-4.5 4.8-4.5 1.3 0 1.3-.2.3-.9-1.1-.6-.8-1.3 1.2-2.9 1.8-1.4 2.2-2.2 1.4-2.5-1-.4-1-.6 0-.6.6-.1 1.2-.8 1.2-1.6s.5-1.5 1-1.5c.6 0 1-.7 1-1.6 0-.8.5-1.2 1-.9.6.3 1 .1 1-.5 0-2.2 3.6-6 4.7-4.9.6.6 1 .4 1-.6 0-.8-.5-1.5-1-1.5-.6 0-.2-.9.8-2s2.1-1.7 2.6-1.5c.4.3 1.1 0 1.5-.6.4-.8.3-.9-.4-.5-2.2 1.4-1.2-2.3 1-3.8 1.2-.9 1.8-1.6 1.3-1.6-.6 0-.1-.7.9-1.5 1.1-.8 1.7-1.5 1.3-1.5-.5 0-.3-.6.3-1.3 4.6-5.4 6-7.4 6-8.4 0-.6.9-1.8 2-2.6s1.7-1.7 1.4-2c-.4-.4.1-.9 1-1.3.9-.3 1.3-1 1-1.5-.3-.5.2-1.2 1-1.5.9-.3 1.3-1 1-1.5-.3-.5.2-.9 1.1-.9.9 0 1.4-.4 1.1-.9-.3-.5.7-2.1 2.2-3.7 1.5-1.5 2-2.4 1.2-1.9-1.3.8-1.3.6-.1-.8.7-.9 1.8-1.4 2.4-1 .6.4.8 0 .4-.9-1-2.7 1.4-4 3.7-2 1.9 1.7 1.9 1.7.3-.7-1.4-2.1-1.4-2.6 0-4.7.8-1.3 1.9-2.2 2.3-1.9.5.3 1.2 0 1.6-.6.4-.8.3-.9-.4-.5s-1.2.2-1.2-.3c0-.6.5-1.1 1-1.1.6 0 1-.7 1-1.5 0-.9.7-1.8 1.5-2.1.8-.4 1.2-1 .9-1.5-.3-.5-.1-.9.4-.9s1.7-1.6 2.8-3.5c1-1.9 2.1-3.5 2.5-3.5.3 0 2.7-3.3 5.4-7.3 2.7-3.9 5.1-7.4 5.2-7.7.2-.2.9.2 1.4 1 .9 1.2 1 1.2.5-.3-.8-2.5 4.3-10.4 5.8-8.9.4.3.4-.1 0-1.1-.3-.9-.1-1.7.4-1.7.6 0 1.3-.8 1.6-1.8.4-.9 2-3.3 3.6-5.2 1.6-1.9 3.4-4 3.9-4.6.6-.7.7-1.5.3-1.8-.3-.4.4-.9 1.7-1.3 1.7-.4 2-.8.9-1.5-.9-.7-.6-.8 1.1-.4 1.7.3 2.1.2 1.3-.6-1.1-1.1-.5-3.8.9-3.8.4 0 .6.8.3 1.7-.5 1.4-.4 1.5.4.4.5-.7.8-2.3.6-3.5-.2-1.1-.2-1.5.2-.9.9 2.1 2.3 1.5 1.7-.7-.3-1.2 0-2 .6-2 .7 0 1 .4.7.8-.3.5.2.9 1 .9 1 0 1.1-.4.4-1.1-1.3-1.3-1.3-3.9 0-3.1.6.3 1 0 1-.8s.8-2.3 1.8-3.5c.9-1.1 3.7-4.8 6.1-8.1 2.4-3.3 4.8-5.8 5.4-5.4.6.4.7.1.2-.7-.5-.8.1-2 1.6-3.2 1.3-1.1 1.7-1.6.9-1.2-1 .5-.9 0 .4-1.4 2.2-2.6 3-2.8 2.2-.6-.3.9-.2 1.2.5.9.5-.4.7-1.5.4-2.6-.4-1.1-.2-1.9.4-1.9.6 0 1.1-.4 1.1-1 0-1.7 3.3-4.9 4.3-4.3.6.3.7.1.3-.5-.8-1.4 4.4-9.1 6.2-9.2.7 0 1.1-.4.8-.9-.3-.5.5-2 1.8-3.4s2.1-2.8 1.8-3.1c-.3-.3 0-.6.7-.6.6 0 1.6-1.1 2.1-2.5s1.7-2.8 2.5-3.1c.8-.4 1.5-1.3 1.5-2.1s.3-1.2.8-.9c.4.2 1.6-1.3 2.6-3.5 1.1-2.1 2.5-3.9 3.3-3.9.7 0 1.2-.3 1.1-.8-.5-1.3 4.5-7.1 5.6-6.5.6.3.8.3.4-.2-1-1.1 2.4-6.7 3.7-6.1.5.2 1.9.7 3 1 1.5.5 1.4.4-.3-.5-2.2-1.2-2.5-3.6-.4-3.2.6.2.9-.4.6-1.2-.4-.8-.1-1.5.6-1.5.8 0 1.1.9.8 2.5-.3 1.3-.1 2.2.3 1.9.5-.3.9-1.4.9-2.4 0-1.4.5-1.8 1.8-1.4 1.4.5 1.4.4.2-.4-.8-.6-1.8-.8-2.2-.6-1.7 1.1-.7-1.2 1.8-4.1 1.4-1.7 2.3-2.5 2-2-.2.6-.1 1.7.5 2.5.6 1.1.8.5.5-1.7-.2-2.4.1-3.3 1.1-3.3.8 0 1.2-.4.8-.9-.3-.6.1-1.3.9-1.8.8-.4 1.5-1.1 1.5-1.6 0-.4.5-1.3 1.1-2 .6-.6 2.9-3.6 5.1-6.5 2.2-2.8 4.5-5.2 5-5.2s.8-.3.8-.8c-.3-1.9.2-2.5 1.1-1.2.8 1.2 1 1.1 1-.8 0-1.3 1.8-4 4.3-6.4 2.3-2.4 3.3-3.6 2.2-2.8-1.9 1.4-1.9 1.4-.6-.3.7-.9 2-1.7 2.8-1.7.8 0 1.1-.4.8-1-.3-.5.8-2.4 2.5-4.1 1.6-1.8 3-3.6 3-4 0-.5 1-.9 2.3-1 1.2 0 1.7-.3 1-.5-.7-.3-.9-1.2-.6-2 .5-1.3.7-1.3 1.4-.2.6.9.9.7.9-.9 0-1.2.8-2.8 1.8-3.5.9-.7 2.2-2.2 2.8-3.3.6-1.1 2.2-2.6 3.5-3.2 1.3-.7 2-1.3 1.4-1.3-.5 0-.4-.4.4-.9.9-.6 2.4-.4 4 .6l2.6 1.5-2.5-2c-1.3-1.1-2.9-1.8-3.5-1.5-.5.2-.1-.4 1-1.4 1.1-1 3.8-3.9 5.9-6.5 2.1-2.7 4.3-4.8 4.8-4.8s.6.5.2 1.2c-.4.7-.3.8.5.4.9-.6.9-1.1-.1-2.4-1-1.2-1-1.4 0-.8.7.4 1.2.2 1.2-.8 0-.8 1.3-2.5 2.9-3.9 1.7-1.4 2.7-2.8 2.3-3.2-.4-.5.1-.5 1-.2 1.2.4 1.5.2 1.2-.8-.4-1 .1-1.2 1.8-.8 1.8.4 2 .3.8-.6-1.3-.9-1-1.5 1.7-4.3 3.1-3.1 3.3-3.1 5.2-1.4 1.3 1.2 2.1 1.4 2.6.6.3-.6.3-1-.2-.9-2 .4-2.7-.2-1.3-1.2 1.3-.9 1.2-1-.2-.5-1 .3-2 .1-2.3-.4-.4-.6-.2-1 .2-1 .5 0 1.8-.7 2.9-1.6 1-.8 1.2-1.2.4-.8-.8.4 1.2-2.1 4.5-5.4 3.3-3.4 6-6.5 6.1-6.9.2-2.2 1.7-4.2 2.7-3.6.5.3.7.2.4-.4-.3-.5-.2-3.5.2-6.6.4-3.1.5-5.7.2-5.7-.4 0-1.2-2.6-2-5.8-1.9-8.6-5.2-20.5-6.1-22.2-.9-1.9-2.3-7.8-1.8-8.3.2-.2-.2-1-.8-1.8-.7-.8-2.1-4.3-3.3-7.9-2.9-9.2-5-15-6.6-18.7-.8-1.7-1.5-3.4-1.5-3.7 0-.4-2.7-7.1-6-14.9-14.9-35.4-37.9-76.3-61.5-109.7-4.4-6.2-8.4-12-9-12.9-.5-.9-1.4-1.9-1.9-2.2-.5-.4-.5-1.2-.1-1.9.5-.7.4-1.1-.1-.7-.8.4-1-7.1-.5-20.3.2-5.2-.9-45.2-1.3-47.5-.2-1.1.2-2.6.8-3.4.8-1.1.8-1.3-.1-.7-1 .5-1.3-.9-1.4-6.1-.1-7.5-.6-14.2-1.3-16-.3-.7 0-1.5.6-1.9.7-.4.7-.9 0-1.3-.9-.6-1.6-5.3-2.6-17.6-.2-2.3-.6-5-.9-6-.4-1.1-.8-3.3-1.1-4.9-2-11.3-6.9-29.5-9.6-35.1-.5-1.1-1.9-4.5-3-7.5-13.9-36.7-33.9-60.8-56.2-67.5-7.8-2.3-17.5-2.9-24.4-1.5-13.9 2.8-43.5 19.4-92.4 51.9l-17.4 11.6-184.1.1-184 .1-17-11.2c-18.2-12-42.3-27.5-42.9-27.5-.2 0-4.5-2.5-9.6-5.6-10.1-6.1-28.4-15.5-35.2-18-5.6-2-19.8-2.6-26.6-.9zm125.9 107.8c2.6.1 4.6.3 4.4.6-.6.5 2.7 3 4 3 .6 0 .2-.4-.7-1-3.3-1.9-1.9-2.9 3.6-2.7 3 .1 5.2.6 5 1-.3.4 0 .8.6.8s.8.5.4 1.2-.3.8.4.4c.6-.4.9-1.3.6-2.1-.5-1.2.4-1.4 4.9-1.3 3.1.1 5.3.6 5.1 1-.3.4.1.8.8.8 1 0 1.1.2 0 .8-.9.6-.6 1.2 1.3 2 2.1 1 2.7.9 3.1-.3.4-.8 1-1.5 1.6-1.5.5 0 .6.5.2 1.2-.5.7-.3.8.6.3 1-.6.9-1.1-.5-2.2-1.1-.7-2.4-1.3-2.9-1.2-.6 0-.6.3.1.5 1.6.7.5 3.4-1.1 2.8-.6-.2-1.2-1.3-1.3-2.4-.2-1.8.4-2 5.2-1.8 2.9.1 5.1.6 4.9 1-.3.4 0 .8.5.8.6 0 1.1.5 1.1 1.1 0 .5-.4.7-1 .4-.6-.3-.7.1-.3 1 .8 2.3 2.5-.3 1.7-2.7-.5-1.6.2-1.8 5-1.6 3 .1 5.3.4 5.1.7-.6.5 2.7 3 4 3 .6 0 .2-.4-.7-1-3.7-2.1-1.7-3 6.5-2.8 11.3.2 11.3.2 12.8 6.2.7 2.9 1.1 5.4 1 5.6-.2.2.2.7.8 1 .5.4 1.2 1.8 1.5 3.1.2 1.4 1.1 4.4 2 6.7.8 2.4 1.3 4.3.9 4.3-.3 0 0 .6.6 1.4 1 1.1.8 1.7-.6 2.5-1.7 1.1-1.7 1.1.1.9 1-.2 2 .4 2.2 1.2.2.8.6 2.6 1 3.9.6 1.9.4 2.3-.7 1.7-.9-.5-.8-.2.2.6 2.6 2.2 5.2 14.7 2.7 13.2-.7-.4-.8-.3-.4.5.4.6 1.1.9 1.6.6.9-.5 1.6 1.1 2.4 5.5.2 1.4 1.6 7 3 12.4 2.5 9.8 2.6 12.3.3 11-.7-.4-.8-.3-.4.2.5.5 1.4.9 2 .9.7 0 1.2 1.4 1.2 3.3 0 1.7.3 3.2.6 3.2 1.6 0 1.6 4.1.1 5-1.6.9-1.6.9-.1 1 2.2 0 3.1 2.4 1.6 4-.9 1-.9 1.1.2.5 1.1-.6 1.3-.3.9 1.3-.4 1.3-.1 2.2.5 2.2s.8.3.4.6c-.3.3-.2 1.7.3 3 .7 1.7.6 2.4-.3 2.4-.9 0-.9.2-.1.8 1.1.7 1.6 2.3 2.9 9.7 1.5 8 1.9 11.2 2 13.7 0 1.6.3 2.8.6 2.8.6 0 1.9 8.1 2.4 15.5.2 1.6.4 3 .5 3 .3 0 .7 2.6 1.4 9 .2 2.7.5 5 .6 5 .3 0 1 4.4 1.4 9.5.3 3 .5 5.5.6 5.5.3 0 1.1 6.4 2.5 20 .3 2.7.7 7 1 9.5 1.3 11.5 1.9 19 1.9 24.7.1 3.5.3 6.3.6 6.3s.5 1.2.6 2.7c.4 10.5 1.4 24.5 1.9 25.3.3.5.1 1.1-.5 1.5-.6.4-.7 1.2-.3 1.8 1.2 2 1.2 3.7 0 3.7-.9 0-.9.2 0 .8 1.8 1.2 2.1 14.4.3 16-1.3 1.1-1.3 1.1.1.7 1.3-.5 1.5 1 1.6 11.2.1 6.5.5 12.6.8 13.5.4 1.1.3 1.8-.4 1.8s-.7.8-.1 2.6c.7 1.8.7 3 0 3.9-.5.6-.7 1.5-.3 1.8 1.2 1.2 1.2 5.7 0 5.7-.8 0-.8.3-.2.8 1.5 1 1.6 22.4.1 21.5-.8-.5-.8-.3 0 .8 1.2 1.5 1.4 21.3.2 22.4-.4.4-.3 1.8.3 3.2 1.1 3 1.1 3.6.1 2.9-1-.6-.9 2.5.2 4.2.4.6.4 1.2-.1 1.2-.7 0-1.4 14.6-1.2 27.3 0 2.2-.6 4.6-1.3 5.5-.9 1-.9 1.3-.1.9 1.4-.9.8 11.5-.7 14.3-.6 1.1-.5 2.1.2 2.8.7.7.8 1.2.2 1.2-.5 0-.9 2.4-.8 5.2.1 2.9-.1 5.7-.3 6.1-.4.6-1.2 9.5-1.6 17.4 0 .7-.3 1.3-.6 1.3s-.6 1.5-.6 3.2c-.1 3.5-1.2 13.7-2 17.8-.3 1.4-.8 4.5-1.1 7-.3 2.5-1 6.3-1.4 8.5-.5 2.2-1.2 6.2-1.5 9-.4 2.7-1 5.4-1.4 6-.4.5-.6 2-.5 3.2 0 1.3-.1 2.3-.5 2.3-.3 0-.6 1-.7 2.2-.1 1.3-.4 3.4-.7 4.8-.3 1.4-.6 3.1-.6 3.8-.1.7-.5 1-1.1.7-.6-.3-.7.1-.4.9.7 1.9-2.7 16.6-3.8 16.6-.5 0-.6.5-.3 1 .7 1.1.8.8-6.1 22.7-2.7 8.6-5.2 14.9-5.7 14.6-.6-.3-.7-.1-.3.5 1.7 2.7-14.8 38.7-26 56.9-10.9 17.7-24.8 34.6-36.7 44.5l-5.8 4.8-8.5-12.2c-4.7-6.8-8.7-13.1-9.1-14.1-.3-.9-.8-1.7-1.2-1.7-1.4 0-.9-4 .7-5.2.9-.7 1.7-1.9 1.8-2.6.1-.6.2-2.1.3-3.2 0-1.1.8-2 1.9-2.1.9 0 1.2-.3.6-.5-1.3-.5-.7-4.1.9-6.2.5-.6.7-1.2.4-1.2-.3 0 .1-2.6.9-5.8.7-3.1 1.3-7 1.4-8.5 0-1.6.3-2.6.8-2.4.4.3.8-2.3.8-5.6.3-16.8.7-21.7 1.8-21.7.7 0 .7-.3-.1-.8-1.3-.8-1.2-2.9.1-5.1.6-.9.5-1.2-.1-.8-.7.5-1.2-2.6-1.3-9.1-.2-11-.5-15.1-1.5-23.7-.3-3.3-.8-8.1-.9-10.6-.2-2.6-.6-5.2-1-5.8-.4-.6-.7-2.8-.5-4.9.1-2-.1-4.4-.4-5.2-1.1-3.2-2.3-9.7-2.2-13 0-1.9-.3-3.7-.7-4-.4-.4-.9-2.4-1.2-4.5-.2-2.2-.6-4.7-1-5.5-.3-.8-.8-3.1-1-5-.3-1.9-.5-3.5-.6-3.5-.2 0-.6-2-1.5-6.5-.3-1.9-1-5.2-1.6-7.4-.6-2.1-.8-4.5-.5-5.3.3-.8.1-1.1-.4-.8-.9.6-1.4-1.8-1.4-6.7 0-.9-.3-1.5-.8-1.2-.8.5-1-.4-1.1-5.8-.1-1.5-.5-2.4-.9-2.2-.4.3-.8-.1-.8-1 0-.8-.3-2.1-.6-2.9-.3-1 .3-2 1.7-2.7 2.3-1.3 2.3-1.4.2 3.6-.2.6.4 1.5 1.4 1.8 1.3.5 1.5.4.7-.4-1.5-1.5.4-5.8 2.6-5.9 4.6 0 7.9-.5 7.5-1.1-.2-.4.1-.7.8-.8 3.7-.3 9.5-2.8 13.4-5.8 1.8-1.4 3.3-2.1 3.3-1.7 0 .4.5.1 1-.7.8-1.3 1.1-1.2 2.3.4 1.1 1.5 1.6 1.6 2.2.6.6-.9.4-1.1-.5-.5-1 .6-1.2.4-.7-.9.4-1 .3-1.5-.3-1.1-.6.3-1 .1-1-.4 0-.6 1-1.1 2.3-1.2 1.2 0 1.7-.3 1.1-.5-.7-.3.2-2 2.2-4.2 5.4-5.9 6.4-7.2 5.9-7.2-.3 0 .6-2 2-4.5 1.3-2.5 2.5-4.7 2.5-5v-1.6c0-.5.4-.8.9-.5.4.3.6-.6.3-1.9-.3-1.9 0-2.5 1.4-2.6 1.1 0 1.4-.3.7-.6-.7-.2-1.3-1.3-1.3-2.4 0-1 .6-1.9 1.3-2 .7 0 .8-.2.1-.5-.7-.3-.8-2-.4-4.9.4-2.5.3-4.5-.2-4.5s-.7-.4-.4-.9c1.2-1.8-1.7-12.9-5.2-20.1-4.5-9.1-14-19.1-22.7-23.7-18-9.4-37.6-8.5-56 2.7l-3 1.9-5.4-12.7c-17.2-40.5-39.3-82.1-61.4-115.7-4.7-7.2-9-13.5-9.4-14-.5-.6-2.4-3.3-4.3-6-3.1-4.7-18.8-25.4-20-26.5-.3-.3-2.7-3.2-5.5-6.5-7.5-9.1-18.6-21.5-22.2-24.9-1.8-1.7-3.3-3.4-3.3-3.9 0-1.4 6.8-10.6 7.4-10 .3.4.6-.1.6-1 0-1 .5-1.7 1.1-1.7.5 0 .7-.5.3-1.2-.5-.8-.2-.9 1-.5.9.4 1.5.3 1.2-.2-.3-.4-.1-2.3.5-4.2.6-1.9 1-11.3 1-21-.1-14.4.2-17.9 1.4-18.9.9-.8 1.3-2.1.9-3.6-.4-1.7-.1-2.6 1-3 .9-.3 1.4-1 1.1-1.4-.3-.5.4-1.5 1.5-2.3 1.1-.7 1.7-1.7 1.3-2-.3-.4-.1-.7.5-.7.7 0 1.2-.6 1.2-1.4 0-2 2.7-4.1 3.2-2.4.3.8.7.6 1.1-.6.4-1 .3-1.5-.3-1.1-.6.3-1 .2-1-.4 0-.6 1.2-1.8 2.8-2.6 1.5-.9 1.9-1.4.9-1.1-1.2.4-.5-.9 2-3.9 3.9-4.7 4.8-5.2 5.8-3.5.3.5 1.1 1 1.8 1 .6 0 .2-.6-.9-1.4-1.9-1.5-1.9-1.5.2-3.7 2.1-2.1 5.1-1.9 3.8.3-.4.7-.2.8.5.4.9-.6.9-1.1 0-2.2s-.6-1.9 1.4-3.8c1.4-1.3 2.8-2.1 3.1-1.8.3.3.6.1.6-.5 0-1.4 11.8-7.6 13-6.8.6.3 1 .1 1-.4 0-.6.5-1.1 1.1-1.1.5 0 .7.5.3 1.2-.4.6-.3.8.4.4.5-.3 1.3 0 1.6.6.3.7.3.3 0-1-.7-2.7.1-2.8 2.8-.2 2.6 2.4 4.2 2.1 4.6-.7.2-1.6.9-2 2.5-1.6 5 1.1 5 1.2 3.3 3.8-1.1 1.7-1.3 2.6-.4 3.1.6.4.8.3.4-.4-.3-.6-.2-1.3.4-1.7.5-.3 1-.1 1 .4 0 .6.5 1.1 1.1 1.1.5 0 .7-.5.4-1-.3-.6-.2-1 .3-1 .6 0 1.3-.8 1.6-1.7.6-1.5.5-1.5-1.3.1-1.9 1.8-2 1.7-1.8-.3.1-1.5.7-1.9 2.2-1.6 1.1.2 2.4.4 2.8.4.5.1.6.5.3 1s.1 1.1.9 1.4c.9.4 1.2.1.8-.9-.5-1.5-.3-1.5 5.2.7 1.7.7 3.5 1.3 4 1.4.6 0 1.8.4 2.8.8.9.4 2.4.9 3.3 1.2 1.6.5 1 2.5-.7 2.5-.6 0-.8-.4-.5-.8.3-.5-.1-.9-.9-.9-2 0-1.9 1.3.1 2.1.9.4 2.4 0 3.3-.7.9-.7 2.4-1.2 3.4-1 2 .5 2 .7.6 3.6-.9 1.9-.8 1.9.9-.3 1.6-1.9 2.3-2.2 3.4-1.2.8.6 1.8.9 2.1.5.4-.3.7-.2.7.4 0 .5 1.4 1 3.2 1.1 1.7 0 3.4.5 3.7 1.1.4.5 1.9.8 3.3.7 2.8-.3 7.2 1.9 6.4 3.3-.3.4 0 1.3.5 2.1.7 1.2.8 1 .6-.7-.2-1.2-.6-2.6-1-2.9-1.3-1.3-.7-2.1 1.6-2.1 1.2.1 3.7-.7 5.6-1.7 2.3-1.2 3.1-1.3 2.6-.4-.4.7.6-.3 2.2-2.2 2.8-3.1 3.2-3.3 4.9-2 1.6 1.3 1.7 1.3.9 0-1.5-2.4-1.5-4.2 0-3.6.9.3 1.2 0 .9-.8-.3-.8.4-2.9 1.5-4.7 1.2-1.9 2.1-4.2 2.1-5.2s.7-2 1.5-2.3c.8-.4 1.3-.9 1.1-1.3-.3-.4.4-4.1 1.5-8.2 1.1-4 2.1-8.5 2.4-9.8.2-1.3 1-2.8 1.7-3.3.7-.4.8-.8.2-.8-.6 0-.9-1.3-.6-3 .2-1.6.8-2.8 1.2-2.5.5.3 1.2.1 1.5-.5.4-.6.1-.9-.7-.8-1.5.3-1.3-4 .3-5.6.5-.6.4-1.5-.3-2.4-1-1.1-.8-1.3.8-1 1.3.2 2-.3 2.2-2 .4-2.8 2-2.9 2.4 0 .2 1.8 1 2.3 3.6 2.4 2.4.1 3-.2 2.2-1.1-.5-.6-.6-1.6-.2-2 .4-.5.1-.5-.5-.1-.7.4-1.3.2-1.3-.3 0-.6-.5-1.1-1.2-1.1-.6 0-.3.9.8 2.1 1.9 2.1 1.9 2.1-.1 1.8-1.1-.2-2.2-1.3-2.5-2.4-.8-2.8-3.3-2.5-4 .5-.7 3-1.9 1.5-1.5-2 .2-1.4.4-2.6.4-2.7.1-.1 1.3.2 2.8.8 1.4.5 4.8 1.1 7.4 1.2zm387.4-1.3c-.3.5-.2 1 .4 1 .6 0 .9 1.7.7 4-.2 2.2-.1 3.8.3 3.6.4-.3.8 1.2.9 3.2.2 2 .5 4.4.7 5.2.2.8.7 3 1 4.8.3 1.9.7 3.9.8 4.5.1.7-.4 1.1-1.1.9-.8-.1-1.1.2-.7.8.3.6 1 .8 1.5.5 1.1-.7 3.3 7.1 2.5 8.5-.3.6-.1 1 .6 1s1 .3.7.6c-.4.3.3 2.6 1.4 5 1 2.5 2.1 5.4 2.3 6.6.3 1.2 1 2.5 1.7 3 .7.4.9.8.5.8s.1 1 1.3 2.2c1.1 1.2 2 2.7 2 3.2.1 1.3 10 8.2 11.2 7.8.4-.1.8.2.8.6 0 .5 1 .8 2.3.7 1.5-.1 2.6.7 3.5 2.4l1.2 2.6-.5-2.5c-.4-2.2-.1-2.5 2.5-2.6 1.7-.1 3 .3 3 .8s-.5.6-1.2.2c-.7-.4-.8-.3-.4.5 1 1.5 2.6.5 2.7-1.7 0-.9.3-1.2.5-.6.4.9 1.3.8 3.5-.3 1.6-.8 3.8-1.6 4.7-1.8.9-.2 1.8-.4 2-.4.1-.1.4-.1.7-.1.3 0 1.9-.7 3.5-1.5 1.7-.9 3.5-1.3 3.9-1 .5.3 1.1.2 1.3-.2.1-.5 3-1.8 6.3-2.9 5.2-1.9 6.2-2 7.4-.7 1.1 1.2 1 1.6-.3 2.6-1.2.9-1.3 1.6-.5 2.7.9 1.3 1 1.3.6 0-.2-.8.3-2 1.2-2.7 1.3-.9 1.4-1.4.4-2.4-.7-.7-1.3-1.6-1.3-1.9 0-.4.6-.7 1.3-.7 3.2-.2 10-1.4 11-2 .6-.3.7-.1.3.6-.4.6-.3 1.7.2 2.4s1.2 2.1 1.5 3.2c.4 1.9.5 1.8.6-.2 0-1.2-.3-2.4-.9-2.8-1.3-.8-.1-3.5 1.4-2.9.7.3 3 .6 5.1.7 2.2.1 4 .8 4.3 1.5.3 1.1 0 1.2-1.9.2l-2.4-1.1 2.4 2.1c2.1 1.8 2.3 2.3 1 3.1-1.2.9-1.2 1 .1.6.8-.2 1.6-1.4 1.6-2.6.1-1.2.4-2.4.6-2.7.9-.8 7.8 2.9 7.2 3.8-.3.5 0 .9.7.7 2.6-.3 3.5.1 6.7 2.7 1.8 1.5 3.2 3.4 3.2 4.3 0 1.4.2 1.4 1.1.1.9-1.2 1-1 .6.8-.4 1.7-.2 2.1.6 1.3 1.6-1.3 9.2 6.2 8.1 8-.4.7-.3 1 .3.6s2.1.6 3.4 2.1c1.8 2 1.9 2.3.4 1.2-1.8-1.4-1.9-1.3-.8.1.7.9 1 1.8.7 2.2-.3.3.3.3 1.5 0s2.1-.1 2.1.4c0 .6 1.5 3 3.3 5.4 1.9 2.4 3.2 5 2.9 5.8-.3.9 0 1.1.8.6 1-.6 1.2-.4.7.8-.3.9-.3 1.6.1 1.4.4-.1.8.2.9.6.1.5 1 1.5 2 2.2 1.4 1.1 1.6 1.6.6 2.6-.7.7-1.3 1.7-1.3 2.3 0 .5.6.2 1.3-.9 1-1.2 1.6-1.4 2.1-.7.4.7.3 1.2-.1 1.2-.5 0-.9.9-1 2-.1 1.1.2 1.8.8 1.5 1.1-.8 1.2.6 0 2.4-.6.8-.6 2.4 0 3.8.6 1.6.5 2.3-.4 2.3-.8 0-.8.3-.2.8.6.4.9 1.8.8 3.2-.7 6.2-.4 19.7.5 22 .5 1.4.8 3.3.6 4.3-.1 1 0 1.6.4 1.3.4-.2 1.6.8 2.6 2.2 1.2 1.5 1.4 2.2.5 1.7-.8-.5.1.6 1.9 2.5 1.9 1.8 4 4.3 4.9 5.6 1.5 2.4.9 4.9-.9 3.8-.7-.5-.8-.2-.3.6s.2 1.7-.6 2.4c-1.3 1-7.4 7.5-16.3 17.6-12.5 14.1-31.5 39.3-43.9 58.3-11 16.7-17.2 27-27.6 45.7-2.3 4.1-4.6 8.2-5.1 9-4.9 8.3-21.6 43.4-30 62.7l-5.6 13.2-3.6-2.4c-12.3-8.3-31.1-10.9-45.8-6.3-18.3 5.7-34.4 23.6-36.7 40.8-.3 1.9-.8 3.9-1.3 4.3-.4.5-.4 2.3 0 4.2.4 1.8.4 3.9-.1 4.6-.4.7-.5 1.8-.1 2.4.3.5.7 1.7.9 2.5.9 7.1 1.7 9.8 3.8 14.3 3.5 7.2 10.7 17.6 12.3 17.7.7 0 1.7 1 2.2 2.2.5 1.3.9 1.8 1 1.3 0-.6 1.2.3 2.6 2 1.5 1.6 2.3 2.4 1.9 1.7-.5-1-.1-1 1.9 0 1.4.6 2.6 1.5 2.6 2s.5.6 1 .3c.6-.3 1-.1 1 .5s.4.9.9.5c.5-.3 1.2-.1 1.6.5.3.5 1.7 1 3 1s2.6.4 3 1c.3.5 1.3.6 2.2.3 1.2-.5 1.4-.3.8.7-.6 1-.4 1.2.8.7 1-.3 1.7-.2 1.7.2 0 .5.7 1.2 1.6 1.5 1.3.5 1.4.3.6-.7-.8-1-.3-1.2 2.5-1.2 2.6.1 3.7.6 3.9 1.8.1.9-.4 1.7-1.2 1.7-.8 0-1.4-.5-1.4-1 0-.6-.5-1-1.1-1-.8 0-.7.6.2 1.7 1.2 1.5 1.2 1.6-.4 1-1.1-.4-1.6-.3-1.2.4.4.5 1.5.7 2.6.4 1.1-.4 1.9-.2 1.9.4 0 .6-.4 1.1-.9 1.1s-.8.8-.7 1.7c.2 1-.3 3.9-1 6.6-.7 2.6-1.3 5.1-1.3 5.5-.4 2.8-1.5 7.9-1.9 8.7-.3.5-.7 2.1-.8 3.4-.4 3.1-2.3 12-3.1 14.1-.3.8-.5 2.3-.4 3.4.2 1-.1 1.6-.6 1.3-.4-.3-.9 1.1-.9 3.1-.2 5-1.5 12.6-2.3 13.2-.3.3-.7 2.1-.7 4-.1 3.4-1.1 11.1-1.9 16-.3 1.4-.7 4.5-1 7-.3 2.5-.7 6.7-1.1 9.5-.3 2.7-.6 6.8-.6 9s-.6 4.3-1.2 4.7c-.6.5-.7.8-.1.8s.9 2.8.7 7c-.3 5-.7 6.8-1.5 6.3s-.8-.2.1.9c1.4 1.8 1.3 6.7-.2 8.7-.8 1.1-.8 1.3 0 .8.9-.5 1.2 2 1.4 8.6.2 9.2.6 14.4 1.3 18.2.3 1.1-.1 2.6-.7 3.4-.8 1.1-.8 1.3.2.7.8-.5 1.2 0 1.2 1.8 0 1.3.3 3.2.7 4.2.5 1.3.3 1.5-.8.9-1-.6-1-.3.2 1.1.9 1 2.1 4.6 2.8 7.9.7 3.3 1.8 6.6 2.3 7.3.7.8.6 1.7-.2 2.7-1 1.3-1.1 1.8-.1 2.8 1 .9 1.1.8.6-.6-.4-.9-.3-1.7.3-1.7 1.4 0 2.3 4.2 1.1 5.6-.8.9-.5 1.1 1.1.7 1.6-.4 2-.1 1.7 1.6-.2 1.1-1.3 3.2-2.5 4.6-1.2 1.4-2.2 2.8-2.2 3.1 0 .3-3.3 5.4-7.4 11.4l-7.4 10.9-3.9-3c-12-9.4-28.9-29.8-40.2-48.6-5.8-9.7-18.1-33.8-18.1-35.6 0-.5-1.1-3.2-2.4-6-1.3-2.9-2.9-7-3.6-9.2-.7-2.2-1.5-4.5-1.9-5-.3-.6-.6-1.2-.7-1.5-.1-.9-8.5-27.5-9.3-29.5-.4-1.1-.7-3-.6-4.2.1-1.2-.1-2-.5-1.8-.3.2-1.2-2.4-1.9-5.8s-2-8.8-2.7-12c-.8-3.2-1.2-6.2-.9-6.7.3-.6.2-1-.3-1s-1.2-1.1-1.4-2.5c-.3-1.4-.1-2.5.6-2.5s.7-.3-.1-.8c-.7-.4-1.5-2.6-1.9-4.7-.3-2.2-1.2-6.9-1.8-10.5-.7-3.6-1.2-8-1.2-9.7.1-1.7-.2-2.9-.5-2.7-.7.4-2-8.9-2.2-16.3-.1-2.8-.5-4.9-.9-4.7-.4.3-.7-.4-.7-1.3.1-2.6-1.2-12.6-1.7-14.2-.3-.9.1-1.1 1.3-.7 1.7.6 1.7.5.1-.7-1.3-1-1.8-3.7-2.4-10.8-.3-5.2-.8-9.7-1.1-10.2-.2-.4.2-.7.9-.7 1 0 1-.2.1-.8-.6-.4-1.2-2.6-1.1-4.9 0-2.3-.3-4.7-.7-5.4-.5-.8-.4-1 .3-.5.7.4 1.2.2 1.2-.3 0-.6-.4-1.1-.9-1.1-.4 0-.9-3-1-6.8-.2-3.7-.5-10.8-.7-15.7-.5-8.7-.5-10-.3-12.8.1-.6-.1-3.3-.4-5.9-.4-3.5-.2-4.6.6-4.1.9.5.8.2 0-.8-.7-.9-.8-2-.3-2.9.5-.8.6-1.9.2-2.5-1.1-1.6-1-23.5 0-22.9.5.4.4-.4-.4-1.5-1.1-1.8-1.1-2.3.2-3.1.8-.5 1-1 .5-1-1.5 0-1.7-5-.2-5 .7 0 .8-.3.2-.8-.6-.4-1.1-2.4-1.2-4.6-.3-3.5-.1-3.7 1.5-2.5 1.6 1.3 1.6 1.2.2-.5-1.7-2.1-2.1-7.8-.5-6.8.5.3.4-.2-.3-1.1-.8-.9-1.2-2-.9-2.4.4-.7 2-40.8 1.9-46.6-.1-1 .4-1.5 1-1.1.7.5.8.2.2-.7-.9-1.5-1.3-6.9-.4-6.9.3 0 .6-2.8.6-6.3.3-17.5.4-17.8 1.7-17.1.8.6.8.3-.1-.9-.8-.9-1.1-2-.8-2.5.3-.6.8-4.9 1.1-9.6.3-4.8.8-11.2 1.1-14.4.4-3.1.7-6.9.8-8.5 0-1.5.4-2.7.7-2.7.3 0 .3-1.4.1-3.1-.3-2 0-3.4.9-4 1.1-.7 1.1-.9.1-.9-.9 0-1-.5-.3-1.9.6-1 .8-3 .5-4.5-.2-1.5-.1-2.5.3-2.3.4.3.8-1.8.7-4.6 0-2.9.2-5.6.5-6.2.2-.5.6-2.1.7-3.5.1-1.4.3-4.4.5-6.7.1-2.3.5-4 .8-3.8.3.2.7-1.8.9-4.3.1-2.6.4-5.8.6-7.2.2-1.4.4-3.5.5-4.8 0-1.3.5-2.1 1-1.7.5.3 1.3.1 1.6-.5.4-.6.3-.9-.2-.8-1 .4-1.3-.5-1.3-3.3 0-1.1.4-1.8.9-1.5.4.3.6-.6.3-2.1-.3-1.8.1-3.1 1.4-4.1 1.8-1.4 1.8-1.4 0-.8-1.4.5-1.7.3-1.1-1.1.8-2 1.2-4.4 1.4-8.6 0-1.6.4-2.6.9-2.3.4.2.7-1.1.6-3-.1-1.9.1-3.6.6-3.9.4-.2.5-1.7.2-3.1-.3-1.5-.1-2.4.4-2.1.6.3.9-.9.9-2.6-.1-2.9.8-7.5 2.3-11.7.3-.8.4-2.8.3-4.4-.2-1.7.1-2.6.7-2.2.6.4.8-.2.5-1.4-.3-1.1-.1-2 .5-2s.9-1.2.8-2.7c-.2-1.6.3-3.3 1.3-4.1.9-.7 1-1.1.4-.7-.8.4-1.3 0-1.3-1 0-.9.3-1.4.8-1.2.4.3.8-1.3.9-3.5.1-2.2.5-4.8.9-5.7.4-.9.8-2.2 1-3 .1-.8.9-1.8 1.6-2.2.8-.6.9-.9.1-.9-1.7 0-.9-2.8 1.3-4.4 1-.8 1.6-1.8 1.1-2.2-.4-.4-.7-.2-.7.4 0 .7-.4 1.2-1 1.2s-.6-.9-.1-2.3c.9-2.3 1.1-3.1 1.1-4.6 0-.5.7-1.7 1.6-2.5.8-.9 1.1-1.6.6-1.6-1 0 1.6-12 2.7-13 .3-.3.6-1 .6-1.5.1-2.8 1.8-7.5 2.5-7 .5.3 1.2 0 1.6-.6.4-.7.3-.9-.4-.5-.6.3-1.3.2-1.6-.3-.4-.5-.2-1.2.4-1.6.5-.3 1-1.7 1-3.1 0-1.4.4-2.3.9-2 .5.3.9 0 .8-.7-.1-3.7.4-5.7 1.3-5.2.7.4.9-.3.6-1.9-.4-2 0-2.6 1.2-2.6 1.5 0 1.5-.2.2-1s-1.3-1 .1-1c.9 0 2.7-.9 4-2.1 1.3-1.1 1.8-1.8 1.2-1.4-.7.3-1.3.4-1.3.1 0-.2-.3-1.1-.6-2-.5-1.3.2-1.6 4.9-1.4 3.1.1 5.4.5 5.1.9-.2.4.1.9.7 1.1.7.2.5.9-.5 1.7-1.4 1.1-1.6 1.1-1.6-.2 0-.9-.5-1.9-1.2-2.3-.6-.4-.9-.3-.6.2.3.5.8 1.7 1.1 2.7.6 1.5 1 1.6 2.7.5 1.2-.8 1.8-1.9 1.4-3-.5-1.6.1-1.8 5-1.6 3 .1 5.3.5 5.2.8-.2.3.5 1.3 1.6 2.2 1 1 1.8 1.4 1.8.9 0-.6-.4-1.3-1-1.6-2.4-1.5-.6-2.5 4.4-2.3 3 .1 5.3.5 5 .9-.2.4.3.9 1.1 1.2.9.4 1.2.1.8-.8-.4-1.2.6-1.4 5-1.3 3.1.1 5.3.6 5.1 1-.3.4 0 .8.6.8s.8.4.5 1c-.3.5-.1 1 .5 1 .7 0 .9-.8.5-2-.6-1.8-.1-1.9 7.4-1.7 4.5.1 8.1.5 8.1.9 0 .5.5.8 1.1.8.5 0 .8-.4.4-.9-.3-.6 1.9-.9 5.2-.9 3.2 0 6.9-.4 8.3-1 3.2-1.4 3.2-1.4 2.5-.2zm-82.1 6.3c-2.1 1.2-2.7.3-1.9-2.4.7-2.2.8-2.2 2.1-.4 1.2 1.7 1.2 2-.2 2.8zM219.7 180c.2 2.3-1 2.6-2.6.6-1-1.1-.8-1.5.6-1.9 1-.3 1.8-.5 1.8-.6.1 0 .1.8.2 1.9zM164 227.9c0 .6-.4 1.3-1 1.6-.5.3-1-.1-1-.9 0-.9.5-1.6 1-1.6.6 0 1 .4 1 .9zm337.6 655.5c1 2.4 1.3 2.6 1.4 1 0-1.1-.5-2.5-1.2-3.2-.6-.6-.8-1.5-.3-1.9.4-.5 1-.2 1.2.4.3.7.9 1.3 1.4 1.3.6 0 .7-.5.4-1-.3-.6-.1-1 .4-1 .6 0 1.1.4 1.1 1 0 .5.5 1 1.1 1 .5 0 .8-.4.5-.8-.8-1.3 6.8-1.1 7.6.2 1.5 2.2.8 2.9-1.2 1.1-1.8-1.7-2-1.7-1.4-.2.3.9 1.1 1.7 1.6 1.7.6 0 .8 1 .5 2.1-.7 2.8.5 1.3 2.1-2.4.7-1.6.8-2.6.2-2.2-.5.3-1 .2-1-.3s1.1-1 2.5-1c2.6 0 3.4 1.3 1.3 2-.7.3.1.5 1.9.5 2.7 0 3-.2 1.6-1.2s-1.2-1.2 1.3-1c1.6.2 2.9.4 2.9.5 0 .3 6.7 1 9.3 1 1.2 0 2.2.6 2.2 1.3 0 .8.4.7 1-.3.8-1.3 1-1.3 1 .2 0 .9-.7 2.3-1.5 3.2-1.4 1.3-1.3 1.5.4 1.3 1 0 1.7-.6 1.4-1.2-.6-1.7 2.2-3.6 4.1-2.9 1.8.7 2.2 2.4.6 2.4-.5 0-1 .5-1 1.1 0 .8.5.8 1.5-.1 1.8-1.5 1.8-1.1.4 2.7-1.3 3.5.3 1.8 1.9-2 .7-1.6.8-2.6.2-2.2-.5.3-1 .1-1-.5s.8-.9 1.8-.6c.9.3 4.4 1.2 7.7 2.1 5.6 1.6 16.2 4.9 19.5 6.2.8.4 1.8.7 2.3.8.4.2 1 .4 1.5.5.4.1 1 .2 1.5.1.4 0 .7.3.7.7 0 .4 2 1.4 4.5 2.1 2.5.7 5 2.2 5.6 3.2.5 1.1 1.5 1.9 2.2 1.9.7 0 .6-.4-.3-1-.9-.6-1-1-.3-1 .6 0 1.5.5 1.9 1.1 1.1 1.8 1.1 16.8 0 16.2-.5-.4-.6-.1-.1.7 1.4 2.2 1.5 8.1.2 7.3-.9-.5-.9-.3-.1.8.6.8 1 6.4 1 13.3l-.1 12-8.5 2.8c-7.8 2.7-26.4 6.8-37 8.2-15.8 2.2-49.4 2.8-67.7 1.3-16.6-1.3-43.7-6.9-52.8-10.7-1.6-.7-3.3-1.3-3.7-1.2-1 .2-1 .5-1.2-12.5-.1-7.5.2-11 .9-10.5.7.4.7.1-.1-.9-1.1-1.5-1.2-23.5 0-26.4.4-1.1 1.3-1.5 2.6-1.2 1.1.3 1.8.2 1.5-.2-.6-1.1 9.2-5.6 11.6-5.4 1 .1 1.9-.3 1.9-.9 0-.6.6-.6 1.5.2 1.3 1.1 1.4 1 .9-.5-.5-1.3-.3-1.6.7-1.3.8.3 1.4 1.1 1.4 1.9 0 2.1 2.9 1.7 3.1-.4.1-1.2.1-1.3-.3-.2-.7 2.2-1.8 1.8-2-.6-.1-1.2.1-1.9.4-1.6.3.4 1.9-.1 3.5-.9 2.7-1.4 3.1-1.4 4.4.3.7 1 1.4 2.3 1.4 3 0 .6.4 1.4.9 1.7.5.4.7-.3.4-1.4-.3-1.1-.9-2.3-1.4-2.6-3-1.8 1-4 10.6-5.8.6-.1 1.5-.4 2-.7.6-.4 2-.5 3.3-.4 1.2.1 2.2-.2 2.2-.6 0-.3 1.1-.9 2.5-1.1 1.3-.3 2.2-.1 1.9.3-.7 1.3.3 1.1 2.6-.3 1.6-1 2.4-1 4.1.1 1.9 1.1 2.1 1.1 1.6-.2-.4-1.1.1-1.4 2.4-1.3 1.6.1 3.4-.1 4.1-.5 1.7-1.1 2.8-.2 4.4 3.5z"/><path d="M324.3 127.5c0 .8.4 1.5.9 1.5.4 0 .8-.4.8-.9 0-.6-.4-1.2-.8-1.5-.5-.3-.9.1-.9.9zM332 127c.8.5 1.5 1.5 1.5 2.1 0 1.5 4.3 2 5.2.6.3-.5-.3-1.6-1.3-2.5-1.7-1.6-1.7-1.6-.5.1 2 2.6.8 3-1.9.7-1.3-1.1-2.8-2-3.4-2-.6 0-.4.5.4 1zM343.7 126.6c.7.3.9 1.2.6 2-.3.7-.9 1.2-1.3.9-1.4-.9-2.3 1.6-1.1 2.8.9.9 1 .7.5-.7-.5-1.3-.4-1.7.4-1.2.6.3 1.5-.2 2.1-1.1.9-1.6 1.2-1.6 2.1-.3.6 1 1 1.1 1 .3 0-1.2-3.1-3.4-4.7-3.2-.4 0-.3.3.4.5zM368.5 127.6c.9.9 1.9 1.3 2.3 1 .3-.4 0-1.1-.8-1.6-2.4-1.5-3.3-1.1-1.5.6zM372.3 127.5c0 .8.4 1.5.9 1.5.4 0 .8-.4.8-.9 0-.6-.4-1.2-.8-1.5-.5-.3-.9.1-.9.9zM380 127c.8.5 1.5 1.5 1.5 2.2 0 .7.9 1.4 2 1.5 1.7.2 1.7.2.3-.5-1.2-.5-1.4-1.1-.9-2.1.8-1.2 1.2-1.2 2.6.3 1.4 1.4 2 1.4 3.4.4.9-.7 1.7-1.3 1.9-1.4.2-.1-.4-.4-1.2-.7-.9-.4-1.5-.3-1.5.1.3 1.9-.2 2.6-1 1.3-.5-.7-2.6-1.5-4.7-1.7-2.6-.2-3.3 0-2.4.6zM392.4 126.9c.4.5-.3 1.5-1.5 2.1-1.1.7-1.8 1.4-1.5 1.7.3.3 1.2 0 2.1-.7 1-.8 1.5-.9 1.5-.1 0 .6.5 1.1 1.1 1.1.8 0 .7-.6-.2-1.7-1.2-1.5-1.2-1.6.4-1 2.4.9 2.1 0-.4-1.4-1.4-.7-1.9-.7-1.5 0zM327 130c0 .5.5 1 1 1 .6 0 1-.5 1-1 0-.6-.4-1-1-1-.5 0-1 .4-1 1zM349.7 130.6c.4 1.2.3 1.5-.5 1-1.6-1-1.5-.1.1 1.2 1 .8 1.3.6 1.4-.8.1-1.1-.2-2.2-.8-2.5-.5-.4-.6.2-.2 1.1zM361.4 129.8c.6 1-1.1 1.7-3.6 1.4-.3-.1-1.2.6-2 1.5-1.1 1.4-1.1 1.6.2.8.8-.5 2.4-1.1 3.5-1.2 2.7-.5 3.9-1.9 2.4-2.8-.8-.5-1-.4-.5.3zM366.6 129.8c-.3.4.4.9 1.5.9 2.3.2 2.5-.3.4-1-.8-.4-1.6-.3-1.9.1zM375 130c0 .5.5 1 1 1 .6 0 1-.5 1-1 0-.6-.4-1-1-1-.5 0-1 .4-1 1zM315.5 132c.3.5.8 1 1.1 1 .2 0 .4-.5.4-1 0-.6-.5-1-1.1-1-.5 0-.7.4-.4 1zM329.6 132.6c-.5 1.4-.4 1.5.8.5.8-.7 2.1-.9 2.7-.5.8.4.9.3.5-.4-1-1.7-3.3-1.5-4 .4zM339 132.4c0 .8.4 1.7.9 2 .5.4.7-.3.4-1.4-.6-2.3-1.3-2.6-1.3-.6z"/><path d="M344.6 131.8c-.3.5.1.9.9.9s1.5-.4 1.5-.9c0-.4-.4-.8-.9-.8-.6 0-1.2.4-1.5.8zM377.6 132.6c-.5 1.4-.4 1.5.8.5.8-.7 2.1-.9 2.7-.5.8.4.9.3.5-.4-1-1.7-3.3-1.5-4 .4zM323.5 132.9c-.3.5-.2 1.2.3 1.5.5.3.9-.1.9-.9 0-1.7-.3-1.9-1.2-.6zM367.3 133.5c0 .8.4 1.2.9.9.5-.3.6-1 .3-1.5-.9-1.3-1.2-1.1-1.2.6zM320 134.5c-.7.9-1.1 1.7-.9 2 .3.2 1-.5 1.7-1.5 1.4-2.4 1-2.6-.8-.5zM370.7 134.1c.7.7 1.5 1 1.8.7.3-.3-.2-.9-1.2-1.2-1.4-.6-1.5-.5-.6.5zM391 134.1c0 .5.5.7 1 .4.6-.3 1-.8 1-1.1 0-.2-.4-.4-1-.4-.5 0-1 .5-1 1.1zM393.5 135.1c-.4.6-.5 1.2-.2 1.5.2.3.7-.2 1-1.1.7-1.7.1-2-.8-.4zM303 171.9c0 .6.4 1.2.8 1.5.5.3.9-.1.9-.9s-.4-1.5-.9-1.5c-.4 0-.8.4-.8.9zM222 180.6c0 .1.8.8 1.7 1.5.9.8 1.4.9 1 .2-.4-.6-.1-1.3.5-1.6.7-.3.3-.4-.9-.4-1.3.1-2.3.2-2.3.3zM299.6 181.3c.3 1 .9 1.5 1.2 1.2.3-.3 0-1.1-.7-1.8-1-.9-1.1-.8-.5.6zM215 182.9c0 .9 3 2.4 3.6 1.8.2-.1-.6-.8-1.6-1.5-1.1-.7-2-.8-2-.3zM236.6 183.6c-.9 2.4-.2 2.6 1.2.4.7-1.1.8-2 .3-2s-1.2.7-1.5 1.6zM205.3 185.2c-.2 1.6.1 1.8 1 .9.7-.7.8-1.4.1-2.1-.6-.6-1-.2-1.1 1.2zM210 184c0 .5.5 1 1 1 .6 0 1-.5 1-1 0-.6-.4-1-1-1-.5 0-1 .4-1 1zM231.6 184.6c-.5 1.4-.4 1.5.9.4 1.7-1.4 1.9-2 .6-2-.5 0-1.2.7-1.5 1.6zM241 184c0 .5.5 1 1.1 1 .5 0 .7-.5.4-1-.3-.6-.8-1-1.1-1-.2 0-.4.4-.4 1zM239 184.5c0 .5.5 1.7 1 2.5s1 1 1 .5c0-.6-.5-1.7-1-2.5s-1-1.1-1-.5zM207.1 187.3c-1.3 2.1-1.2 2.1.5.5 1-1 1.6-2 1.3-2.2-.3-.3-1.1.5-1.8 1.7zM219.6 185.9c-.3.5.2 1.5 1.2 2.2 1.5 1.2 1.6 1.2.5-.2-.7-.9-1-1.9-.6-2.2.3-.4.4-.7 0-.7-.3 0-.8.4-1.1.9zM233.6 185.8c-.2.4-.1 1.4.3 2.1.6.9 1.1 1 1.5.2.4-.6.2-1.1-.4-1.1-.6 0-.8-.5-.5-1 .3-.6.4-1 .1-1-.3 0-.7.4-1 .8zM243.9 185.2c-.1.2-.3 1.6-.5 3.3-.2 2 0 2.5.5 1.6.5-.8.7-2.1.3-2.9-.3-1-.1-1.3.6-.8.7.4 1.2.2 1.2-.3 0-.9-1.8-1.6-2.1-.9zM199 187.1c0 .5.4.8.9.5.5-.3 2.2.4 3.7 1.5l2.9 2.1-2.8-2.6c-3-2.7-4.7-3.3-4.7-1.5zM209.5 188.1c-.2.3.9.5 2.6.5 1.6 0 2.9-.3 2.9-.7 0-.8-5-.7-5.5.2zM253.6 188.3c.4 1.2.2 1.7-.7 1.5-.8-.2-1.4.7-1.5 2.2-.2 2.2-.2 2.2.3.2.2-1.2.8-2 1.3-1.7 1.4.9 2.3-1.6 1.1-2.8-.9-.9-1.1-.8-.5.6zM197 188.9c0 .5.5 1.3 1 1.6.6.3 1 .2 1-.4 0-.5-.4-1.3-1-1.6-.5-.3-1-.2-1 .4zM200 189.4c0 .2.7.7 1.6 1 .8.3 1.2.2.9-.4-.6-1-2.5-1.4-2.5-.6zM239 190.4c.7.7 1.3.7 2 0 .6-.6.3-1-1-1s-1.6.4-1 1zM245.5 189.9c-.3.5-.2 1.2.3 1.5.5.3.9-.1.9-.9 0-1.7-.3-1.9-1.2-.6zM258.1 191.3c-1.3 2.1-1.2 2.1.5.5 1-1 1.6-2 1.3-2.2-.3-.3-1.1.5-1.8 1.7zM194 190.8c0 .6-.8 1.3-1.7 1.5-1.6.4-1.6.5-.1.6 1.8.1 3.4-1.6 2.4-2.6-.3-.4-.6-.1-.6.5zM248 190.9c0 .6.4 1.3 1 1.6.6.3.7-.1.4-.9-.7-1.8-1.4-2.1-1.4-.7zM195.6 192.7c-.6 1.4-.5 1.5.5.6.7-.7 1-1.5.7-1.8-.3-.3-.9.2-1.2 1.2zM260.2 192.5c-.7.9-.8 1.5-.2 1.5h1.7c.4 0 .8-.6.9-1.5.3-1.9-.7-1.9-2.4 0zM264.9 191.5c-.1.3-.2.8-.3 1.2-.1.5-.5 1.5-1.1 2.3-.8 1.3-.7 1.3 1 0 1.7-1.4 1.8-1.3 1.2.2-.3 1-.3 1.9.1 2.2.4.3.8-.4.9-1.4.1-1.1-.3-2.2-.8-2.5-.5-.4-.7-1.1-.4-1.6.4-.5.4-.9.1-.9-.3 0-.7.2-.7.5zM286.1 192.4c-1 1.2-.8 1.7.9 2.6 1.7.9 2.5.9 3.4 0 .8-.8.6-.9-.8-.4-1.3.5-1.7.4-1.2-.4s.1-1-1.1-.5c-1.6.6-1.6.5-.4-1 .7-.9 1.1-1.7.8-1.7-.2 0-1 .6-1.6 1.4zM290.6 191.8c-.2.4.4.8 1.4.8 1 0 1.6-.4 1.4-.8-.3-.4-.9-.8-1.4-.8-.5 0-1.1.4-1.4.8zM201.5 192.9c-.3.5-.2 1.2.3 1.5.5.3.9-.1.9-.9 0-1.7-.3-1.9-1.2-.6zM245 193.4c0 .2.7.7 1.6 1 .8.3 1.2.2.9-.4-.6-1-2.5-1.4-2.5-.6zM281.9 194.3c.6.8.9 1.6.6 1.9-.3.2.2.5 1 .5 1.9 0 1.9-.5.1-2.3-1.8-1.8-3.2-1.9-1.7-.1zM197.6 195.3c.3 1 .9 1.5 1.2 1.2.3-.3 0-1.1-.7-1.8-1-.9-1.1-.8-.5.6zM257.1 194.7c-.1 1.7 1.6 2.5 2.5 1.2.4-.7.3-.9-.4-.5-.5.3-1.3 0-1.5-.6-.4-.9-.6-1-.6-.1zM269.1 195.6c0 1.1.3 1.4.6.6.3-.7.2-1.6-.1-1.9-.3-.4-.6.2-.5 1.3zM271.8 194.7c.7.3 1.6.2 1.9-.1.4-.3-.2-.6-1.3-.5-1.1 0-1.4.3-.6.6zM274 196c-1.8 1.2-.2 1.2 2.5 0 1.3-.6 1.5-.9.5-.9-.8 0-2.2.4-3 .9zM270.7 197.3c-.3.8.1 1.4.8 1.4.7 0 1.1-.6.8-1.4-.3-.7-.6-1.3-.8-1.3-.2 0-.5.6-.8 1.3zM187 198c0 .5.5 1 1 1 .6 0 1-.5 1-1 0-.6-.4-1-1-1-.5 0-1 .4-1 1zM277.5 198c.6.9.4 1.2-.7.8-.8-.4-1.5-.1-1.5.7 0 .8.7 1.1 1.5.7 1.1-.4 1.3-.1.7.9-.5.8-.4 1.1 0 .6 1.3-1.2 1.5-3.6.3-4.4-.7-.4-.8-.1-.3.7zM286 197.4c0 .2.7.7 1.6 1 .8.3 1.2.2.9-.4-.6-1-2.5-1.4-2.5-.6zM267.5 198.9c-.3.5-.2 1.2.3 1.5.5.3.9-.1.9-.9 0-1.7-.3-1.9-1.2-.6zM190.6 200.2c.3.5 1 .6 1.5.3 1.3-.9 1.1-1.2-.6-1.2-.8 0-1.2.4-.9.9zM183.6 201.3c.3 1 .9 1.5 1.2 1.2.3-.3 0-1.1-.7-1.8-1-.9-1.1-.8-.5.6zM279.6 201.8c-.3.5.1.9.9.9s1.2-.4.9-.9c-.3-.4-.7-.8-.9-.8-.2 0-.6.4-.9.8zM180.7 204c-1.4 1.3-1.5 2-.6 2.6.8.5 1 .3.4-.6-.6-.9-.4-1.2.6-.8 1 .4 1.5-.1 1.6-1.3.2-2.3.3-2.3-2 .1zM183 209.4c0 .2.7.7 1.6 1 .8.3 1.2.2.9-.4-.6-1-2.5-1.4-2.5-.6zM177.3 211.9c0 1.1.5 1.8.9 1.5.4-.3.5-1.1.1-1.9-.7-2.1-1.2-1.9-1 .4zM171.5 218c-.3.5-.1 1 .4 1 .6 0 1.1-.5 1.1-1 0-.6-.2-1-.4-1-.3 0-.8.4-1.1 1zM167.8 221.7c.7.3 1.6.2 1.9-.1.4-.3-.2-.6-1.3-.5-1.1 0-1.4.3-.6.6zM171 224c0 .5.5 1 1.1 1 .5 0 .7-.5.4-1-.3-.6-.8-1-1.1-1-.2 0-.4.4-.4 1zM157.6 279.8c-.3.4.4.9 1.5.9 2.3.2 2.5-.3.4-1-.8-.4-1.6-.3-1.9.1zM153.4 284.2c-.4.5-.3 1.2 0 1.5.3.4.6.1.6-.6s.4-1 .9-.6c.5.3 1.2.2 1.5-.3.3-.5-.2-.9-1-.9s-1.7.4-2 .9zM150.5 288.1c-1.1 1.6-.1 1.9 1.3.3.7-.8.8-1.4.3-1.4s-1.3.5-1.6 1.1zM439.3 364.5c0 .8.4 1.2.9.9.5-.3.6-1 .3-1.5-.9-1.3-1.2-1.1-1.2.6zM362 569.4c0 .2.8 1 1.8 1.7 1.5 1.3 1.6 1.2.3-.4s-2.1-2.1-2.1-1.3zM359 578.4c0 .2.8 1 1.8 1.7 1.5 1.3 1.6 1.2.3-.4s-2.1-2.1-2.1-1.3zM355 579.4c0 .2.7.7 1.6 1 .8.3 1.2.2.9-.4-.6-1-2.5-1.4-2.5-.6zM353 584.2c0 .4.4.8.9.8.6 0 1.2-.4 1.5-.8.3-.5-.1-.9-.9-.9s-1.5.4-1.5.9zM342.7 588.5c-1.5 1.4-2.4 2.5-1.9 2.5s1.9-1.1 3.2-2.5c3-3.2 2.3-3.2-1.3 0zM347.5 588c.3.5.8 1 1.1 1 .2 0 .4-.5.4-1 0-.6-.5-1-1.1-1-.5 0-.7.4-.4 1zM353 588.1c0 .5.5.7 1 .4.6-.3 1-.8 1-1.1 0-.2-.4-.4-1-.4-.5 0-1 .5-1 1.1zM343 591.5c0 .7 3 1.3 3.4.7.3-.4-.4-.9-1.5-.9-1-.1-1.9 0-1.9.2zM335.5 593.1c-.4.6-.5 1.2-.2 1.5.2.3.7-.2 1-1.1.7-1.7.1-2-.8-.4zM338.7 593.2c-1.2 1-1.4 1.7-.6 2.8.9 1.3 1 1.3.6 0-.2-.8.3-2 1.2-2.7.9-.7 1.3-1.3 1-1.3-.3 0-1.3.6-2.2 1.2zM332.5 595.4c0 1.3.4 2.8.8 3.2.4.5.5 0 .1-1-.5-1.4-.4-1.7.5-1.1 1 .6 1.1.3.2-1.4-1.5-2.7-1.7-2.6-1.6.3zM326 596.1c0 .6-1 .8-2.2.5-1.3-.3-1.7-.3-1 0 .6.3.9 1 .6 1.6-.4.6.2.5 1.5-.1 1.9-1 2.9-3.1 1.6-3.1-.3 0-.5.5-.5 1.1zM327.7 597.4c-.4 1.1-.5 2.1-.2 2.4.3.3.5 0 .5-.7s.4-1 .9-.6c.5.3 1.3 0 1.7-.6.4-.7.3-.9-.4-.5-.5.3-1.2.1-1.4-.6-.3-.7-.7-.5-1.1.6zM321 599c.6 1.1 1.3 2 1.6 2 .2 0 0-.9-.6-2s-1.3-2-1.6-2c-.2 0 0 .9.6 2zM324.5 600.1c-.4.6-.5 1.2-.2 1.5.2.3.7-.2 1-1.1.7-1.7.1-2-.8-.4zM331 600c0 .5.5 1 1.1 1 .5 0 .7-.5.4-1-.3-.6-.8-1-1.1-1-.2 0-.4.4-.4 1zM319.6 602.7c-.4.9-.3 2 .1 2.4.4.4.9-.3.9-1.7.2-2.8-.1-3.1-1-.7zM333.5 778c-.3.5-.1 1 .4 1 .6 0 1.1-.5 1.1-1 0-.6-.2-1-.4-1-.3 0-.8.4-1.1 1zM329 797.4c0 .2.7.7 1.6 1 .8.3 1.2.2.9-.4-.6-1-2.5-1.4-2.5-.6zM706.5 126c-.3.6.1.7.9.4 1.8-.7 2.1-1.4.7-1.4-.6 0-1.3.4-1.6 1zM631.1 126.4c.2.2 1.5.9 2.9 1.5 2.4 1.1 2.4 1.1.6-.3-1.6-1.3-4.9-2.4-3.5-1.2zM643.9 126.9c.9.6 1 1.1.2 1.5-.6.4-1.1 1.3-1.1 1.9 0 .7.5.4 1.1-.5.5-1 1.7-1.5 2.7-1.2 1.4.5 1.4.3-.2-1-1.1-.9-2.5-1.6-3-1.6-.6 0-.5.4.3.9zM655.8 126.7c.6.2 1 .9.7 1.3-.3.5.3 1.4 1.4 2 1.6.8 2.2.7 3.1-.9.7-1.4.7-2.2-.2-2.7-.6-.4-.8-.3-.5.2 1 1.7-.7 3.4-2.3 2.4-1.3-.9-1.3-1 0-1s1.3-.1 0-1c-.8-.5-1.9-.9-2.5-.9-.5 0-.4.3.3.6zM667.8 126.7c.6.2 1.2.9 1.2 1.4 0 .6-.4.7-1 .4-.6-.3-.7.1-.4 1 .6 1.4.8 1.4 1.9-.2 1.3-1.8.4-3.4-2-3.2-.5 0-.4.3.3.6zM672.6 127.5c.4.8 1.1 1.5 1.6 1.5.6 0 .5-.6-.2-1.5-.7-.8-1.4-1.5-1.6-1.5-.2 0-.1.7.2 1.5zM680.6 127.5c1 .8 2.4 1.4 2.9 1.4.6 0 .1-.6-.9-1.4-1.1-.8-2.4-1.5-3-1.5-.5 0-.1.7 1 1.5zM684.5 127c.6.8 1 1.9 1 2.5 0 1.5 4.6 1.4 5.2-.1.3-.8 1-1.1 1.7-.7.6.4.5-.1-.3-1-1.4-1.8-2.2-2.2-2-1 .3 2-.3 2.9-2.1 3-1.1.1-1.8-.2-1.5-.6.2-.5-.3-1.5-1.2-2.2-1.5-1.2-1.6-1.2-.8.1zM696.2 128.1c-.5 1.1-1.2 2-1.7 1.9-.5-.1-1.1.4-1.3 1.2-.3 1.1-.2 1.1.6 0 .5-.8 1.3-1.3 1.8-1.2.4.1 1.1-.8 1.6-1.9.4-1.2.5-2.1.2-2.1-.2 0-.8.9-1.2 2.1zM701 127.1c0 .5.5.7 1 .4.6-.3 1-.8 1-1.1 0-.2-.4-.4-1-.4-.5 0-1 .5-1 1.1z"/><path d="M703.7 127.4c-.4 1-.3 1.5.2 1.2.5-.3 1.1 0 1.4.8.9 2.2 5 1.4 5.2-1.1.1-1.4-.3-1.9-1.2-1.6-1.1.4-1.1.8-.1 2s.9 1.4-.8 1.1c-1-.1-2.4-1.1-3-2.2-1-1.7-1.2-1.7-1.7-.2zM699.3 128.5c.2 1.1.9 1.9 1.6 1.7.8-.2 1.1.3.8 1.2-.4.9-.2 1.8.2 2 .5.3.8-.3.7-1.4 0-1.1-.5-2-1.1-1.9-.5 0-1.3-.8-1.7-1.8-.7-1.6-.8-1.6-.5.2zM651 129c0 .6-.6.8-1.2.4-.7-.4-.9-.3-.5.1 1 1.2 3.7 1.5 3.7.5 0-.5-.4-1.2-1-1.5-.5-.3-1-.1-1 .5zM631.9 130.8c-1.3 1.5-1.2 1.6.3.4 1.3-1 1.7-1 2.1 0 .4.9.6.9.6.1.2-2-1.6-2.4-3-.5zM665.4 129.8c.6 1-1.1 1.7-3.6 1.4-.3-.1-1.2.6-2 1.5-1.1 1.4-1.1 1.6.2.8.8-.5 2.4-1.1 3.5-1.2 2.7-.5 3.9-1.9 2.4-2.8-.8-.5-1-.4-.5.3zM670.6 129.8c-.3.4.4.9 1.5.9 2.3.2 2.5-.3.4-1-.8-.4-1.6-.3-1.9.1zM679 130c0 .5.5 1 1 1 .6 0 1-.5 1-1 0-.6-.4-1-1-1-.5 0-1 .4-1 1zM645.5 131c.3.4 1.4 1 2.5 1.3 1.1.3 1.8.2 1.5-.3-.3-.4-1.4-1-2.5-1.3-1.1-.3-1.8-.2-1.5.3zM635.6 132.7c-.6 1.4-.5 1.5.5.6.7-.7 1-1.5.7-1.8-.3-.3-.9.2-1.2 1.2zM655 132c0 .5.5 1 1 1 .6 0 1-.5 1-1 0-.6-.4-1-1-1-.5 0-1 .4-1 1zM681.6 132.6c-.5 1.4-.4 1.5.8.5.8-.7 2.1-.9 2.7-.5.8.4.9.3.5-.4-1-1.7-3.3-1.5-4 .4zM691.3 132.9c0 1.1.5 1.8.9 1.5.4-.3.5-1.1.1-1.9-.7-2.1-1.2-1.9-1 .4zM696.6 131.8c-.3.5.1.9.9.9s1.5-.4 1.5-.9c0-.4-.4-.8-.9-.8-.6 0-1.2.4-1.5.8zM671.3 133.5c0 .8.4 1.2.9.9.5-.3.6-1 .3-1.5-.9-1.3-1.2-1.1-1.2.6zM645.5 134c.3.5.8 1 1.1 1 .2 0 .4-.5.4-1 0-.6-.5-1-1.1-1-.5 0-.7.4-.4 1zM674.7 134.1c.7.7 1.5 1 1.8.7.3-.3-.2-.9-1.2-1.2-1.4-.6-1.5-.5-.6.5zM708 134c-.9.6-1 1-.3 1 .6 0 1.5-.5 1.8-1 .8-1.2.4-1.2-1.5 0zM639.5 136c.3.5.8 1 1.1 1 .2 0 .4-.5.4-1 0-.6-.5-1-1.1-1-.5 0-.7.4-.4 1zM709.6 135.8c-.2.4-.1 1.4.4 2.2.7 1.1.9.9.7-.8-.1-2.4-.3-2.6-1.1-1.4zM622.5 148c-.3.6.1.7.9.4 1.8-.7 2.1-1.4.7-1.4-.6 0-1.3.4-1.6 1zM713.6 155.3c.3 1 .9 1.5 1.2 1.2.3-.3 0-1.1-.7-1.8-1-.9-1.1-.8-.5.6zM619.3 159.5c0 .8.4 1.2.9.9.5-.3.6-1 .3-1.5-.9-1.3-1.2-1.1-1.2.6zM714.9 159.7c-1.3 1.6-1.2 1.7.4.4.9-.7 1.7-1.5 1.7-1.7 0-.8-.8-.3-2.1 1.3zM616.6 165.8c-.3.5.1.9.9.9s1.2-.4.9-.9c-.3-.4-.7-.8-.9-.8-.2 0-.6.4-.9.8zM721.5 180c.3.5.8 1 1.1 1 .2 0 .4-.5.4-1 0-.6-.5-1-1.1-1-.5 0-.7.4-.4 1zM792.5 181c-.3.5-1.3.6-2.3.3-1.3-.5-1.4-.3-.5.7.9 1 1.6.9 3.4-.4 1.3-.9 1.8-1.6 1.2-1.6-.7 0-1.4.4-1.8 1zM796.4 180.8c.3.6-.3 1.3-1.4 1.7-1.1.3-2 1.1-2 1.6 0 .6.5.7 1.2.3.8-.5.9-.2.5 1-.4 1.1-.3 1.5.4 1.1.6-.4.8-1.3.5-2-.7-2 1.7-2.4 3.2-.6 1.1 1.4 1.2 1.3.2-.6-.5-1.2-1.5-2.5-2.2-2.9-.6-.4-.8-.3-.4.4zM802.8 180.7c.6.3.9.9.6 1.5-.4.6.2.5 1.5-.1 2.7-1.5 2.7-1.6-.7-1.7-1.5-.1-2.1.1-1.4.3zM814 181.9c0 .5.9 1.2 2 1.6 1.1.3 1.9 1.1 1.7 1.7-.1.6.4 1.2 1.1 1.3.7.2.8.1.2-.2-.5-.2-.8-.8-.5-1.3.3-.4-.6-1.5-2-2.4-1.4-.9-2.5-1.2-2.5-.7zM807 182.9c0 .5.5 1.3 1 1.6.6.3 1 .2 1-.4 0-.5-.4-1.3-1-1.6-.5-.3-1-.2-1 .4zM781.7 184.5c-.6 1.5 1 3.2 2 2.1.4-.3.1-.6-.6-.6s-.9-.5-.6-1c.4-.6 1.1-.8 1.6-.5.5.4.9.1.9-.4 0-1.6-2.7-1.3-3.3.4zM777.5 186c-1.6 1.7-1.6 2-.3 1.5.9-.4 1.9-1.3 2.2-2.1.7-1.9.2-1.8-1.9.6zM789.5 185.9c-.3.5 0 1.3.6 1.7.8.5.9.3.4-.6-.6-1-.4-1.2.9-.7 1 .4 1.5.3 1.1-.3-.8-1.3-2.2-1.3-3-.1zM813.5 185.9c-.3.5 0 1.3.6 1.7.7.4.9.3.5-.4-.3-.5 0-1.3.6-1.5.9-.4 1-.6.1-.6-.6-.1-1.4.3-1.8.8zM729 187c0 .6.7 1.3 1.5 1.6.8.4 1.2 1 .9 1.5-.3.5.3.6 1.2.2 1.3-.5 1.5-.3.9.7-.6.9-.4 1.1.5.5 1-.6.9-1.1-.6-2.1-1-.7-2.5-1.8-3.1-2.4-.9-.8-1.3-.8-1.3 0zM774.1 187.7c-.1 1.3-.7 2.2-1.3 2-1.4-.2-2 5-.7 5.8.4.3.5-.9.2-2.6-.3-2.1-.1-2.9.6-2.4 1.3.7 2.5-1.8 1.8-3.7-.3-.7-.6-.3-.6.9zM799 186.4c0 .2.8 1 1.8 1.7 1.5 1.3 1.6 1.2.3-.4s-2.1-2.1-2.1-1.3zM821.7 186.7c.7.2.9 1.2.6 2.1-.4 1.3-.2 1.2 1-.3 1.4-1.7 1.6-1.8 1.7-.3 0 .9-.4 2-1 2.3-.5.3-1 1.2-1 1.8 0 .8.4.7.9-.2 1.4-2.2 4.4-2.4 3.6-.3-.5 1.3-.3 1.4.6.5 1.2-1.2.3-3.7-1.1-2.8-.4.3-1-.3-1.2-1.3-.3-1-1.5-1.8-2.9-1.9-1.3 0-1.9.1-1.2.4zM727 187.9c0 .6.4 1.3 1 1.6.6.3.7-.1.4-.9-.7-1.8-1.4-2.1-1.4-.7zM768.6 188.6c-1.1.7-1.8 1.6-1.5 1.8.2.2 1.3-.2 2.3-1 1.1-.7 1.8-1.6 1.5-1.8-.2-.2-1.3.2-2.3 1zM779 188c-1.3.8-1.2 1 .3 1 .9 0 1.7-.5 1.7-1 0-1.2-.1-1.2-2 0zM805.6 188.2c.3.5 1 .6 1.5.3 1.3-.9 1.1-1.2-.6-1.2-.8 0-1.2.4-.9.9zM809 188.1c0 .5.5.7 1 .4.6-.3 1-.8 1-1.1 0-.2-.4-.4-1-.4-.5 0-1 .5-1 1.1zM816.7 188.1c.7.7 1.5 1 1.8.7.3-.3-.2-.9-1.2-1.2-1.4-.6-1.5-.5-.6.5zM763.9 190.1c-.1.8 0 2 .1 2.8.1 1.2-.3 1.2-2.2-.1l-2.4-1.6.1 4.3c0 2.4.3 4.7.7 5 .3.3.4-1.2.3-3.4-.2-2.3.1-3.8.6-3.5.5.3 1.8.7 2.8.9 1.5.3 1.8-.1 1.4-1.2-.5-1.2-.3-1.4.8-.8 1.2.7 1.2.6-.1-1.1-.8-1-1.6-2.1-1.7-2.3-.2-.2-.4.2-.4 1zM775.6 190.7c-.6 1.4-.5 1.5.5.6.7-.7 1-1.5.7-1.8-.3-.3-.9.2-1.2 1.2zM817.5 191.1c-.4.6-.5 1.2-.2 1.5.2.3.7-.2 1-1.1.7-1.7.1-2-.8-.4zM727.5 192c.3.5.8 1 1.1 1 .2 0 .4-.5.4-1 0-.6-.5-1-1.1-1-.5 0-.7.4-.4 1zM735.5 192c-.3.5-.1 1 .4 1 .6 0 1.1-.5 1.1-1 0-.6-.2-1-.4-1-.3 0-.8.4-1.1 1zM737.4 194.4c-.3.9-.4 2 0 2.3.3.4.6-.2.6-1.2 0-1.5.2-1.7 1.3-.6 1 1 .8 1.5-.7 2.7-1.1.8-1.5 1.4-.9 1.4s1.6-.7 2.3-1.6c1.1-1.2 1-1.8-.3-3.1-1.5-1.5-1.7-1.5-2.3.1zM741.5 194c.3.5 1.1 1 1.6 1 .6 0 .7-.5.4-1-.3-.6-1.1-1-1.6-1-.6 0-.7.4-.4 1zM748 193.6c0 1.3 1.8 3.9 2.4 3.4.2-.3-.2-1.4-1-2.4-.8-1.1-1.4-1.6-1.4-1zM768 194c-.9.6-1 1-.3 1 .6 0 1.5-.5 1.8-1 .8-1.2.4-1.2-1.5 0zM828 194.1c-1.2.9-1.2 1 .4.5 1.4-.5 1.7-.3 1.2 1.1-.6 1.5-.5 1.6.5.5 1.8-1.7-.1-3.5-2.1-2.1zM753.7 194.7c-1 1-.8 2.3.4 2.3.5 0 .7-.5.3-1.1-.4-.8.1-.9 1.7-.4 1.9.5 2.1.4.9-.4-1.8-1.3-2.4-1.3-3.3-.4zM819.4 195.8c.4.3 1.4.7 2.2.8.9.1 1.3 0 1-.4-.4-.3-1.4-.7-2.2-.8-.9-.1-1.3 0-1 .4zM743.2 196.9c-1.1.6-.9.9.6 1.3s1.9.2 1.5-.8c-.6-1.6-.4-1.6-2.1-.5zM831.5 196.9c-.3.5-.2 1.2.3 1.5.5.3.9-.1.9-.9 0-1.7-.3-1.9-1.2-.6z"/><path d="M763 198.1c0 .5.5.7 1 .4.6-.3 1-.8 1-1.1 0-.2-.4-.4-1-.4-.5 0-1 .5-1 1.1zM747.8 198.7c.7.3 1.6.2 1.9-.1.4-.3-.2-.6-1.3-.5-1.1 0-1.4.3-.6.6zM838 198.4c0 .2.8 1 1.8 1.7 1.5 1.3 1.6 1.2.3-.4s-2.1-2.1-2.1-1.3zM740.5 200c-.3.6.1.7.9.4 1.8-.7 2.1-1.4.7-1.4-.6 0-1.3.4-1.6 1zM847.5 210c.6 1 .4 1.2-.9.7-1-.4-1.5-.3-1.1.3.8 1.3 3.5 1.3 3.5.1 0-.6-.5-1.3-1.2-1.7-.7-.5-.8-.3-.3.6zM849 214.1c0 .5.5.7 1 .4.6-.3 1-.8 1-1.1 0-.2-.4-.4-1-.4-.5 0-1 .5-1 1.1zM850 216c-.9.6-1 1-.3 1 .6 0 1.5-.5 1.8-1 .8-1.2.4-1.2-1.5 0zM852.7 218.1c.7.7 1.5 1 1.8.7.3-.3-.2-.9-1.2-1.2-1.4-.6-1.5-.5-.6.5zM849.6 220.2c.3.5 1 .6 1.5.3 1.3-.9 1.1-1.2-.6-1.2-.8 0-1.2.4-.9.9zM852.9 223.7c-1.3 1.6-1.2 1.7.4.4.9-.7 1.7-1.5 1.7-1.7 0-.8-.8-.3-2.1 1.3zM855.3 225.5c0 .8.4 1.5.9 1.5.4 0 .8-.4.8-.9 0-.6-.4-1.2-.8-1.5-.5-.3-.9.1-.9.9zM601 233.9c0 .6.4 1.3 1 1.6.6.3.7-.1.4-.9-.7-1.8-1.4-2.1-1.4-.7zM859.5 271.9c-.3.5-.2 1.2.3 1.5.5.3.9-.1.9-.9 0-1.7-.3-1.9-1.2-.6zM869.6 284.5c-.9 2.6-.7 3.2.5 1.2.6-1 .9-2.1.6-2.3-.2-.3-.7.2-1.1 1.1zM589.6 309.8c-.3.5.1.9.9.9s1.2-.4.9-.9c-.3-.4-.7-.8-.9-.8-.2 0-.6.4-.9.8zM657.5 562.9c-.3.5-.2 1.2.3 1.5.5.3.9-.1.9-.9 0-1.7-.3-1.9-1.2-.6zM662.6 571.8c-.3.5.1.9.9.9s1.2-.4.9-.9c-.3-.4-.7-.8-.9-.8-.2 0-.6.4-.9.8zM665.3 575.5c0 .8.4 1.2.9.9.5-.3.6-1 .3-1.5-.9-1.3-1.2-1.1-1.2.6zM665.3 579.4c0 1.5 2.2 1.5 3.4 0 .4-.5.4-.6-.1-.2-.5.4-1.4.3-2.1-.2-.8-.7-1.2-.5-1.2.4zM667.9 582.7c-1.2 1.6-1.2 1.7.2.6.9-.7 2-.9 2.4-.5.5.4.5.1.1-.6-.9-1.6-1.1-1.5-2.7.5zM672.1 585.9c-.9.6-1 1.1-.2 1.5.6.4 1.1.2 1.1-.4 0-.6.5-.8 1.2-.4s.8.3.4-.4c-.8-1.4-.7-1.4-2.5-.3zM676.1 587.6c0 1.1.3 1.4.6.6.3-.7.2-1.6-.1-1.9-.3-.4-.6.2-.5 1.3zM677.6 589.9c-.3.5.1 1.4.9 2.1 1 .9 1.5.9 1.5.1 0-.6-.5-1.1-1.1-1.1-.5 0-.7-.5-.4-1 .3-.6.4-1 .1-1-.3 0-.7.4-1 .9zM681.4 590.1c-.4.7-.3.9.4.5.5-.3 1.3 0 1.5.6.4.9.6 1 .6.1.1-1.7-1.6-2.5-2.5-1.2zM685.5 593c.6 1 .4 1.2-.9.7-1.1-.5-1.5-.3-1 .5.5.7.2.9-.8.6-.8-.4-1.5-.1-1.5.6 0 .6.8 1.2 1.8 1.2s1.6-.2 1.4-.5c-.3-.2.3-.9 1.2-1.6 1.3-.9 1.3-1.4.3-2-.9-.6-1.1-.4-.5.5zM689.2 593.6c1 1 2 1.6 2.2 1.3.3-.3-.5-1.1-1.7-1.8-2.1-1.3-2.1-1.2-.5.5zM693.4 594.9c.4.5.1 1.2-.4 1.4-.6.3-.5.4.2.3 1.5-.3 2.3-2.6.8-2.6-.6 0-.9.4-.6.9zM686.6 595.8c-.3.5.1.9.9.9s1.5-.4 1.5-.9c0-.4-.4-.8-.9-.8-.6 0-1.2.4-1.5.8zM695.4 597.1c-.3.6-.1 1.6.5 2.2.9.9 1 .7.5-.8-.7-1.8-.6-1.8.9-.6.9.7 1.7.9 1.7.3 0-1.4-2.8-2.3-3.6-1.1zM699.7 599.4c-.4.9-.3 1.5.2 1.1.5-.3 1.1 0 1.3.7.3.7.7.5 1.1-.6.4-.9.3-1.5-.2-1.1-.5.3-1.1 0-1.3-.7-.3-.7-.7-.5-1.1.6zM687.6 602.2c.3.4 1.1.5 1.9.1 2.1-.7 1.9-1.2-.4-1-1.1 0-1.8.5-1.5.9zM695 602.2c0 .4.4.8.9.8.6 0 1.2-.4 1.5-.8.3-.5-.1-.9-.9-.9s-1.5.4-1.5.9zM697.6 803.8c-.3.5.1.9.9.9s1.2-.4.9-.9c-.3-.4-.7-.8-.9-.8-.2 0-.6.4-.9.8zM526.9 881.6c.6 1.2.7 2.4.4 2.8-.3.3-.1.6.5.6 1.6 0 1.5-1.2-.4-3.6-1.5-1.8-1.5-1.8-.5.2zM491.9 883c-1.6 1.7-1.5 1.7 2.1 1.6 2.1 0 3.6-.5 3.3-.9-.2-.4-1.4-.5-2.6-.1-1.9.6-2 .5-.8-1 1.8-2.2 0-1.9-2 .4zM497.5 882c.3.5 1.1 1 1.6 1 .6 0 .7-.5.4-1-.3-.6-1.1-1-1.6-1-.6 0-.7.4-.4 1zM508 882c-1.3.8-1.3 1 .2 1 .9 0 2-.5 2.3-1 .8-1.3-.5-1.3-2.5 0zM530 882.4c.6.8 1.9 1.2 2.7.9 1.1-.4 1.4-.2.9.5-.4.7-.2 1.2.4 1.2.7 0 1-.6.7-1.3-.2-.6-1.2-1.1-2.1-1.1-.9.1-1.6-.2-1.6-.7 0-.5-.5-.9-1.1-.9-.8 0-.8.4.1 1.4zM486.5 883.6c.9.9 1.9 1.3 2.3 1 .3-.4 0-1.1-.8-1.6-2.4-1.5-3.3-1.1-1.5.6zM505.2 884c0 1.4.2 1.9.5 1.2.2-.6.2-1.8 0-2.5-.3-.6-.5-.1-.5 1.3zM536.6 883.5c.4.8 1.1 1.5 1.6 1.5.6 0 .5-.6-.2-1.5-.7-.8-1.4-1.5-1.6-1.5-.2 0-.1.7.2 1.5zM479 883.7c0 .7 2.8 3.3 3.6 3.3.3 0 .1-.6-.5-1.3-.6-.8-.9-1.6-.6-1.9.3-.2-.2-.5-1-.5s-1.5.2-1.5.4zM510 884c-1.2.7-1 .9.7.7 1.2 0 1.9-.5 1.7-.9-.6-1-.6-1-2.4.2zM518.3 883.7c.9.8 4.7 1.1 4.7.4 0-.5-1.1-.9-2.5-.9s-2.4.2-2.2.5zM543.5 884.1c-.4.6-.5 1.2-.2 1.5.2.3.7-.2 1-1.1.7-1.7.1-2-.8-.4zM472.5 885.1c-.4.6-.5 1.2-.2 1.5.2.3.7-.2 1-1.1.7-1.7.1-2-.8-.4zM483.8 884.7c.7.3 1.6.2 1.9-.1.4-.3-.2-.6-1.3-.5-1.1 0-1.4.3-.6.6zM474.1 887.2l-1.4 2.3 2.4-2c1.3-1.1 2.6-2.1 2.8-2.2.2-.2-.2-.3-1-.3s-2 1-2.8 2.2zM525.4 886.4c.1.8.5 1.8.8 2.2.4.3.5-.1.4-1-.1-.8-.5-1.8-.8-2.2-.4-.3-.5.1-.4 1zM529.5 885.9c-.9 1.5 1.5 2.5 2.8 1.2.9-.9.7-1-.7-.5-1.3.5-1.7.4-1.2-.4.4-.7.5-1.2.2-1.2s-.7.4-1.1.9zM551.4 885.7c.3.3-.2 1.3-1.2 2.1-1.1.9-.8.9 1-.2 2.7-1.6 2.8-1.6 2.5.6-.2 1.8.3 2.3 2.3 2.3 1.4 0 3.1.4 3.8.8 1.8 1.2 1.4-.4-.5-2-1.6-1.3-1.5-1.4 1.2-.8 1.6.4 2.6.3 2.2-.1-.4-.4-2.1-.9-3.8-1-2.4-.2-2.8.1-1.9 1.1.9 1.1.7 1.4-.9 1.2-1.3-.1-1.9-.8-1.8-2 .1-1.2-.5-2.1-1.6-2.3-1.1-.1-1.6 0-1.3.3zM467 887.1c0 .5.5.7 1 .4.6-.3 1-.8 1-1.1 0-.2-.4-.4-1-.4-.5 0-1 .5-1 1.1zM470 887.5c0 .8.4 1.5 1 1.5.5 0 .7-.7.4-1.5-.4-.8-.8-1.5-1-1.5-.2 0-.4.7-.4 1.5zM479 886.9c0 .7-.5.9-1.2.5-.7-.5-.8-.3-.3.5.5.9 1 1 1.8.2.6-.6.8-1.4.4-1.8-.4-.3-.7-.1-.7.6zM485 887c-.8.5-1.2 1.2-.9 1.5.4.3 1.2-.1 1.9-1 1.4-1.7 1.1-1.9-1-.5zM490 887.4c.7.7 1.3.7 2 0 .6-.6.3-1-1-1s-1.6.4-1 1zM495 887c0 .5.5 1 1 1 .6 0 1-.5 1-1 0-.6-.4-1-1-1-.5 0-1 .4-1 1zM523.1 887.6c0 1.1.3 1.4.6.6.3-.7.2-1.6-.1-1.9-.3-.4-.6.2-.5 1.3zM535 887.1c0 .5.5.7 1 .4.6-.3 1-.8 1-1.1 0-.2-.4-.4-1-.4-.5 0-1 .5-1 1.1zM463.7 888.1c.7.7 1.5 1 1.8.7.3-.3-.2-.9-1.2-1.2-1.4-.6-1.5-.5-.6.5zM542.6 887.8c-.3.5.1.9.9.9s1.2-.4.9-.9c-.3-.4-.7-.8-.9-.8-.2 0-.6.4-.9.8zM460 888.4c0 .2.7.9 1.5 1.6.9.7 1.5.8 1.5.2 0-.5-.7-1.2-1.5-1.6-.8-.3-1.5-.4-1.5-.2zM467 890c0 .5.5 1 1 1 .6 0 1-.5 1-1 0-.6-.4-1-1-1-.5 0-1 .4-1 1zM475 890c0 .5.5 1 1 1 .6 0 1-.5 1-1 0-.6-.4-1-1-1-.5 0-1 .4-1 1zM479.6 889.8c-.3.4.4.9 1.5.9 2.3.2 2.5-.3.4-1-.8-.4-1.6-.3-1.9.1zM529.5 890c.3.5.8 1 1.1 1 .2 0 .4-.5.4-1 0-.6-.5-1-1.1-1-.5 0-.7.4-.4 1z"/><path d="M551 889.5c0 .5.5 1.7 1 2.5s1 1 1 .5c0-.6-.5-1.7-1-2.5s-1-1.1-1-.5zM563.1 890.4c-1.5 1.8.5 3.4 2.2 1.7.9-.9.7-1.1-.8-.6-2 .7-2 .6-.1-.9 1.1-.9 1.5-1.6.9-1.6s-1.6.6-2.2 1.4zM454.8 891.2c.5.5 1.6.8 2.3.6.8-.3.3-.7-1-1.1-1.7-.4-2.1-.3-1.3.5zM567 891c0 .5.7.7 1.5.4.8-.4 1.5-.8 1.5-1 0-.2-.7-.4-1.5-.4s-1.5.4-1.5 1zM463.7 891.7c-1 1-.8 2.3.4 2.3.5 0 .8-.4.5-.9-.4-.5 0-1.2.6-1.4.7-.3.8-.6.2-.6-.6-.1-1.4.2-1.7.6zM570.2 891.9c-1.1.7-1 .9.3 1.4.9.4 1.4.3 1-.2-.3-.5.1-1.2.7-1.4.7-.3.9-.6.3-.6-.5 0-1.6.3-2.3.8zM574.3 892.7c-.7.3-1.3.9-1.3 1.5s.6.6 1.5-.2c1.8-1.5 1.8-1 .5 2.4-.5 1.4-.7 2.6-.5 2.6.3 0 1-1.2 1.6-2.7 1-2.8.2-4.4-1.8-3.6zM548.5 894c-.3.6.1.7.9.4 1.8-.7 2.1-1.4.7-1.4-.6 0-1.3.4-1.6 1zM567.1 893.7c.3 2-.2 2.7-1.1 1.3-.6-.9-1-1-1-.3 0 1.9 1.7 2.4 2.9.9.9-1 .9-1.6.1-2.1-.6-.4-1-.3-.9.2zM578.6 894.5c-.7 1.8 4.9 5.1 5.9 3.4.4-.6.4-1.3.1-1.6-.3-.4-.6-.1-.6.5s-.7.9-1.6.5c-1.3-.5-1.3-.8-.2-1.5.9-.6.6-.7-.9-.3-1.8.5-2.2.3-1.7-.9.3-.9.4-1.6.1-1.6-.3 0-.7.7-1.1 1.5zM441 895.4c0 .2.7.7 1.6 1 .8.3 1.2.2.9-.4-.6-1-2.5-1.4-2.5-.6zM445 896.2c0 .6.3.8.7.5.3-.4 1.2-.2 2 .5.7.6 1.6.8 2 .4.3-.3.1-.6-.6-.6s-1-.4-.7-.8c.2-.4-.4-.9-1.5-.9-1-.1-1.9.3-1.9.9zM455.6 895.9c.9.9 3.4.9 3.4.1 0-.5-.9-.8-2-.7-1 .1-1.7.3-1.4.6zM569.7 896.5c-.4.8-.1 1.7.5 2.1.7.5.8.2.3-.6-.6-1-.4-1.2 1-.6 1.5.5 1.6.4.5-.9-1.5-1.9-1.6-1.9-2.3 0zM437.6 897.1c.3.5 1.4.9 2.5.9 1.3 0 1.8.4 1.3 1.2-.4.7-.3.8.5.4 1.6-1 .6-2.3-2.4-2.8-1.3-.3-2.2-.1-1.9.3zM586 896.4c0 .3 1.4 1.2 3 2.1 1.7.9 3 1.3 3 1.1 0-.3-1.3-1.2-3-2.1-1.6-.9-3-1.3-3-1.1zM434.3 898.2c-.8 1-.9 1.8-.1 2.8.8 1.3.9 1.2.5-.2-.9-2.5.6-3.1 1.8-.7 1.1 2 1.2 2 1.9.3.4-1 .4-1.5 0-1.1-.4.4-1.2 0-1.9-.9-.9-1.3-1.3-1.4-2.2-.2zM577.3 897.7c.4.3.1 1.3-.6 2.2-1.1 1.4-1 1.4.5.2 1.6-1.2 1.6-3.1.1-3.1-.4 0-.3.3 0 .7zM579.9 900.7c-1.2 1.6-1.2 1.7.2.6.9-.7 2-.9 2.4-.5.5.4.5.1.1-.6-.9-1.6-1.1-1.5-2.7.5zM584.5 900c-.3.6.1.7.9.4 1.8-.7 2.1-1.4.7-1.4-.6 0-1.3.4-1.6 1zM428 900.4c0 .2.7.9 1.5 1.6.9.7 1.5.8 1.5.2 0-.5-.7-1.2-1.5-1.6-.8-.3-1.5-.4-1.5-.2zM587 901c-.8.5-1 1-.5 1 .6 0 1.7-.5 2.5-1s1.1-1 .5-1c-.5 0-1.7.5-2.5 1zM591 902c0 .5.6.9 1.3.7.6-.1 1.1.4.9 1.2-.3 1.2-.1 1.2 1.5.1 2.8-2.2 2.9-2.4 1.1-1.7-1 .3-2 .2-2.3-.3-.8-1.3-2.5-1.3-2.5 0zM428 904.4c0 .8.4 1.7.9 2 .5.4.7-.3.4-1.4-.6-2.3-1.3-2.6-1.3-.6zM435.5 906c.3.5.8 1 1.1 1 .2 0 .4-.5.4-1 0-.6-.5-1-1.1-1-.5 0-.7.4-.4 1zM593.3 907.3c0 .8.6 1.4 1.4 1.4.9 0 1-.4.2-1.4-.6-.7-1.2-1.3-1.4-1.3-.1 0-.2.6-.2 1.3zM1007.6 481.8c-.3.5.1.9.9.9s1.2-.4.9-.9c-.3-.4-.7-.8-.9-.8-.2 0-.6.4-.9.8zM1003.4 485.2c-1.9 2.3-1.9 2.3.2.5 1.1-.9 2.4-1.4 2.9-1 .4.5.5.2.1-.5-.9-1.6-1-1.6-3.2 1zM19.7 485.1c.7.7 1.5 1 1.8.7.3-.3-.2-.9-1.2-1.2-1.4-.6-1.5-.5-.6.5zM20 487.4c0 .2.8 1 1.8 1.7 1.5 1.3 1.6 1.2.3-.4s-2.1-2.1-2.1-1.3zM1003.9 487.2c-.5 1.8-.6 3.8-.1 3.4.7-.8 1.2-3.6.6-3.6-.2 0-.4.1-.5.2zM997.8 490.1c-1.9 1.1-2.4 3.4-.9 4.3.5.4.7-.2.4-1.3-.5-2 2.1-3.6 3.9-2.4.7.3.8.1.4-.5-.9-1.4-1.6-1.5-3.8-.1zM23.4 492.4c.1.8.5 1.8.8 2.2.4.3.5-.1.4-1-.1-.8-.5-1.8-.8-2.2-.4-.3-.5.1-.4 1zM1001.3 493.5c0 .8.4 1.2.9.9.5-.3.6-1 .3-1.5-.9-1.3-1.2-1.1-1.2.6zM987.7 501c-.9 1.1-1.2 2-.7 2 .6 0 1.3-.7 1.6-1.5.4-.8 1.1-1.2 1.7-.8.6.3.7.1.3-.5-.9-1.5-.9-1.5-2.9.8zM29.3 502.4c-.3.6-.2.8.2.3 1.2-1 4.6 2.3 3.8 3.7-.3.6-.2.7.2.3 1.4-1.2 1.5-3.7.2-3.4-.7.1-1.1-.3-1-.9.1-.6-.5-1.1-1.3-1.1s-1.8.5-2.1 1.1zM34 501.4c0 .2.7.7 1.6 1 .8.3 1.2.2.9-.4-.6-1-2.5-1.4-2.5-.6zM37.5 506c-.3.6.1 1.3.9 1.6.9.3 1.3 1 1 1.5-.3.5-1.1.6-1.7.3-.7-.4-.9-.3-.4.1.4.5 1.8 1 3 1.1 1.2.2 1.6 0 .9-.2-.6-.3-1-1-.6-1.5.3-.5-.2-1.2-1-1.5-.9-.3-1.3-1-1-1.5.3-.5.3-.9 0-.9s-.8.5-1.1 1zM981.5 510c-.3.6.1.7.9.4 1.8-.7 2.1-1.4.7-1.4-.6 0-1.3.4-1.6 1zM43.3 511.5c0 .8.4 1.2.8.9.5-.3 1.7.4 2.9 1.6 1.1 1.1 2 1.6 2 1.1s-1.3-1.9-2.8-3c-2.2-1.5-2.9-1.7-2.9-.6zM978 512c0 .6.4.9.9.6.5-.4 1.2-.1 1.4.4.3.6.4.5.3-.2-.3-1.5-2.6-2.3-2.6-.8zM42 516c.8.5 2 1 2.5 1 .6 0 .3-.5-.5-1s-1.9-1-2.5-1c-.5 0-.3.5.5 1zM977.6 516.6c-.5 1.4-.4 1.5.9.4 1.7-1.4 1.9-2 .6-2-.5 0-1.2.7-1.5 1.6zM49 518.1c0 .5.5.7 1 .4.6-.3 1-.8 1-1.1 0-.2-.4-.4-1-.4-.5 0-1 .5-1 1.1zM971.1 520.6c0 1.1.3 1.4.6.6.3-.7.2-1.6-.1-1.9-.3-.4-.6.2-.5 1.3zM975.3 520.7c0 .9.4 1 1.4.2.7-.6 1.3-1.2 1.3-1.4 0-.1-.6-.2-1.3-.2-.8 0-1.4.6-1.4 1.4zM51.6 522.7c-.6 1.4-.5 1.5.5.6.7-.7 1-1.5.7-1.8-.3-.3-.9.2-1.2 1.2zM968.6 524.1c.4.8 3 .6 3.8-.2.3-.3-.5-.5-1.9-.5-1.3 0-2.2.3-1.9.7zM53 526c0 .5.5 1 1.1 1 .5 0 .7-.5.4-1-.3-.6-.8-1-1.1-1-.2 0-.4.4-.4 1zM967.3 525.5c.4.5-.2 1.4-1.4 2-2 1.1-2 1.2-.3 1.9 1 .4 1.5.4 1.1 0-.4-.4.1-1.2 1-1.9 1.3-1 1.4-1.3.2-2-.8-.5-1-.4-.6 0zM53.6 529.3c.3 1 .9 1.5 1.2 1.2.3-.3 0-1.1-.7-1.8-1-.9-1.1-.8-.5.6zM59.6 532.9c-.3.5.1 1.1.9 1.4.9.4 1.2.1.8-.9-.6-1.6-1-1.7-1.7-.5zM961.5 534c-.3.6.1.7.9.4 1.8-.7 2.1-1.4.7-1.4-.6 0-1.3.4-1.6 1zM63.8 534.7c.7.3 1.6.2 1.9-.1.4-.3-.2-.6-1.3-.5-1.1 0-1.4.3-.6.6zM956.4 536.1c-.3.6-.1 1.6.5 2.2.9.9 1 .7.5-.7-.6-1.5-.4-1.7.6-1.1.9.5 1.1.4.6-.3-.9-1.5-1.3-1.5-2.2-.1zM64.1 538.4c-.8 1-.9 1.6-.1 2.1.6.4.9.1.8-.7-.2-.7.3-1.2 1-1 .8.1 1.1-.2.7-.8-.8-1.3-1-1.3-2.4.4zM68.1 539.6c0 1.1.3 1.4.6.6.3-.7.2-1.6-.1-1.9-.3-.4-.6.2-.5 1.3zM954 540.4c0 .2.7.7 1.6 1 .8.3 1.2.2.9-.4-.6-1-2.5-1.4-2.5-.6zM69.5 541.9c-.6 1.1 1.3 2.6 2.2 1.7.4-.3.1-.6-.6-.6s-.9-.5-.6-1c.3-.6.4-1 .1-1-.3 0-.7.4-1.1.9zM954.4 543.8c.4.3 1.4.7 2.2.8.9.1 1.3 0 1-.4-.4-.3-1.4-.7-2.2-.8-.9-.1-1.3 0-1 .4zM951.6 546.7c-.4.9-.3 2 .1 2.4.4.4.9-.3.9-1.7.2-2.8-.1-3.1-1-.7zM71 547.8c0 .5.7.9 1.5.9s1.2-.4.9-.9c-.3-.4-.9-.8-1.5-.8-.5 0-.9.4-.9.8zM75.7 549.1c.7.7 1.5 1 1.8.7.3-.3-.2-.9-1.2-1.2-1.4-.6-1.5-.5-.6.5zM947 551c-.9.6-1 1-.3 1 .6 0 1.5-.5 1.8-1 .8-1.2.4-1.2-1.5 0zM79.5 554c-.4.6.1.7 1.1.3 1.3-.5 1.5-.3.9.7-.5.9-.4 1.1.4.6.6-.4.9-1.2.6-1.7-.8-1.2-2.2-1.2-3 .1zM942.2 556c0 1.4.2 1.9.5 1.2.2-.6.2-1.8 0-2.5-.3-.6-.5-.1-.5 1.3zM944.6 555.7c-.6 1.4-.5 1.5.5.6.7-.7 1-1.5.7-1.8-.3-.3-.9.2-1.2 1.2zM77.1 556.7c.7 1.2 1.5 2 1.8 1.7.3-.2-.3-1.2-1.3-2.2-1.7-1.6-1.8-1.6-.5.5zM82.1 559c.7 1.4 1.4 3.1 1.5 3.8.5 2.7 1.2 2.2 1-.7 0-1.6-.3-2.8-.5-2.5-.2.2-1-.4-1.8-1.4-1.2-1.5-1.3-1.4-.2.8zM940.5 560c.3.5.8 1 1.1 1 .2 0 .4-.5.4-1 0-.6-.5-1-1.1-1-.5 0-.7.4-.4 1zM944 559.4c0 .2.8 1 1.8 1.7 1.5 1.3 1.6 1.2.3-.4s-2.1-2.1-2.1-1.3zM937.4 562.5c-.3.8-.4 2-.2 2.7.3.7.7.1 1-1.5.6-2.9.1-3.6-.8-1.2zM934.5 564.1c-.4.6-.5 1.2-.2 1.5.2.3.7-.2 1-1.1.7-1.7.1-2-.8-.4zM929.5 571.9c-.3.5-.2 1.2.3 1.5.5.3.9-.1.9-.9 0-1.7-.3-1.9-1.2-.6zM95.3 574.5c0 .8.4 1.2.9.9.4-.3.8-.9.8-1.5 0-.5-.4-.9-.8-.9-.5 0-.9.7-.9 1.5zM925 576c0 .5.5 1 1 1 .6 0 1-.5 1-1 0-.6-.4-1-1-1-.5 0-1 .4-1 1zM93.6 577.3c.3 1 .9 1.5 1.2 1.2.3-.3 0-1.1-.7-1.8-1-.9-1.1-.8-.5.6zM928.6 577.8c-.3.5.1.9.9.9s1.2-.4.9-.9c-.3-.4-.7-.8-.9-.8-.2 0-.6.4-.9.8zM98 578.7c0 .7.5 1.5 1 1.8.6.4.8 1 .5 1.5-.7 1.1 2.2.7 3.2-.5.4-.4.3-.5-.4-.1-.6.3-1.9-.4-2.7-1.6-.9-1.2-1.6-1.7-1.6-1.1zM923 579.1c0 .5-.5.7-1.2.3-.7-.4-.8-.3-.4.5.6.9 1.1.9 2.2 0 1.7-1.4 1.8-1.9.4-1.9-.5 0-1 .5-1 1.1zM921 583c-.9.6-1 1-.3 1 .6 0 1.5-.5 1.8-1 .8-1.2.4-1.2-1.5 0zM917 587c-.9.6-1 1-.3 1 .6 0 1.5-.5 1.8-1 .8-1.2.4-1.2-1.5 0zM107 587.4c0 .2.7.7 1.6 1 .8.3 1.2.2.9-.4-.6-1-2.5-1.4-2.5-.6zM110.6 593.7c-.6 1.4-.5 1.5.5.6.7-.7 1-1.5.7-1.8-.3-.3-.9.2-1.2 1.2zM909.5 594.9c-.3.5-.2 1.2.3 1.5.5.3.9-.1.9-.9 0-1.7-.3-1.9-1.2-.6zM913.5 596.9c-.3.5-.2 1.2.3 1.5.5.3.9-.1.9-.9 0-1.7-.3-1.9-1.2-.6zM109.5 598c-.3.5-.1 1 .4 1 .6 0 1.1-.5 1.1-1 0-.6-.2-1-.4-1-.3 0-.8.4-1.1 1zM114.6 600c.5.8.9 2.1 1 2.8.2.8.5 1.7.8 2 .4.3.5-.4.3-1.6-.2-1.2-.9-2.8-1.7-3.5-1-1-1.1-.9-.4.3zM119.7 603.1c.7.7 1.5 1 1.8.7.3-.3-.2-.9-1.2-1.2-1.4-.6-1.5-.5-.6.5zM901.5 606c.3.5.8 1 1.1 1 .2 0 .4-.5.4-1 0-.6-.5-1-1.1-1-.5 0-.7.4-.4 1zM121.5 608c.3.5.8 1 1.1 1 .2 0 .4-.5.4-1 0-.6-.5-1-1.1-1-.5 0-.7.4-.4 1zM900 608c0 .5.5 1 1.1 1 .5 0 .7-.5.4-1-.3-.6-.8-1-1.1-1-.2 0-.4.4-.4 1zM904.5 608c-.3.6.1.7.9.4 1.8-.7 2.1-1.4.7-1.4-.6 0-1.3.4-1.6 1zM123.9 609.2c-.6 2.2-.5 3.8.3 3.8.6 0 .8-.6.5-1.4-.3-.8-.1-1.7.6-2 .9-.3.9-.5 0-.5-.7-.1-1.3 0-1.4.1zM895.4 613.2l-1.9 2.3 2.5-2c1.4-1.1 2.7-2.1 2.9-2.2.2-.2 0-.3-.6-.3-.5 0-1.8 1-2.9 2.2zM898.6 614.2c.3.4.9.8 1.5.8.5 0 .9-.4.9-.8 0-.5-.7-.9-1.5-.9s-1.2.4-.9.9zM128.6 618.2c.3.5 1 .6 1.5.3 1.3-.9 1.1-1.2-.6-1.2-.8 0-1.2.4-.9.9zM893.3 618.4c-.4.5-.1.6.5.2.5-.3 1.2-.2 1.4.3.1.5 1.1.4 2.1-.4 1.7-1.2 1.6-1.3-.8-1.1-1.5 0-2.9.5-3.2 1zM890.3 619.5c-.3.9-.3 1.8-.1 2.1.3.3.8-.4 1.1-1.6.6-2.3-.1-2.7-1-.5zM886.4 627.2c.3 1.5 2.6 2.3 2.6.8 0-.6-.4-.9-.9-.6-.5.4-1.2.1-1.4-.4-.3-.6-.4-.5-.3.2zM133.4 628.2c-.4.7-.4 1 .1.6.4-.4 1.5-.2 2.4.5 1.4 1.1 1.4 1 .2-.6-1.6-2-1.8-2.1-2.7-.5zM882 629.4c0 .2.7.6 1.5 1 .8.3 1.5.1 1.5-.4 0-.6-.7-1-1.5-1s-1.5.2-1.5.4zM139.3 632.5c0 .8.4 1.2.9.9.5-.3.6-1 .3-1.5-.9-1.3-1.2-1.1-1.2.6zM887.6 632.2c.3.5 1 .6 1.5.3 1.3-.9 1.1-1.2-.6-1.2-.8 0-1.2.4-.9.9zM879 636.9c0 .7-.5.9-1.2.5-.7-.5-.8-.3-.3.5.5.9 1 1 1.8.2.6-.6.8-1.4.4-1.8-.4-.3-.7-.1-.7.6zM879.9 640.7c-1.3 1.6-1.2 1.7.4.4 1.6-1.3 2.1-2.1 1.3-2.1-.2 0-1 .8-1.7 1.7zM875.5 642.1c-1.1 1.6-.1 1.9 1.3.3.7-.8.8-1.4.3-1.4s-1.3.5-1.6 1.1zM871.6 644.8c-.2.4.4.8 1.4.8 1 0 1.6-.4 1.4-.8-.3-.4-.9-.8-1.4-.8-.5 0-1.1.4-1.4.8zM870.5 648c.3.5.8 1 1.1 1 .2 0 .4-.5.4-1 0-.6-.5-1-1.1-1-.5 0-.7.4-.4 1zM155.4 651.8c0 1-.5 1.6-1.4 1.4-.8-.2-1.1 0-.7.4 1.5 1.5 3.3 1.1 3.4-.7.1-1-.2-2.1-.7-2.4-.4-.2-.7.3-.6 1.3zM149.5 651.9c-.3.5-.2 1.2.3 1.5.5.3.9-.1.9-.9 0-1.7-.3-1.9-1.2-.6zM865.6 653.9c-.3.5.2 1.5 1.2 2.2 1.5 1.3 1.6 1.2.4-.3-1.1-1.4-1-1.7.5-2.1 1.6-.4 1.6-.5.1-.6-.9 0-1.9.3-2.2.8zM159.2 656.9c-1.1.6-.9.9.6 1.3s1.9.2 1.5-.8c-.6-1.6-.4-1.6-2.1-.5zM863 657.9c0 .6.4 1.2.8 1.5.5.3.9-.1.9-.9s-.4-1.5-.9-1.5c-.4 0-.8.4-.8.9zM160 662c-.9.6-1 1-.3 1 .6 0 1.5-.5 1.8-1 .8-1.2.4-1.2-1.5 0zM859.5 662.9c-.3.5-.2 1.2.3 1.5.5.3.9-.1.9-.9 0-1.7-.3-1.9-1.2-.6zM857.4 666.2c-.4.7-.4 1 .1.6.4-.4 1.5-.2 2.4.5 1.4 1.1 1.4 1 .2-.6-1.6-2-1.8-2.1-2.7-.5zM166.3 667.6c.9 1.1 1.4 2.3 1.1 2.7-.3.3.1.4 1 .3.8-.1 1.9-.6 2.3-1.1.5-.4.2-.5-.6 0-1.1.6-1.3.4-.8-.9.4-1 .3-1.5-.4-1.1-.5.4-1.8.1-2.7-.6-1.5-1.2-1.5-1.2.1.7zM853.6 669.9c-.3.5.2 1.5 1.2 2.2 1.5 1.3 1.6 1.2.4-.3-1.1-1.4-1-1.7.5-2.1 1.6-.4 1.6-.5.1-.6-.9 0-1.9.3-2.2.8zM851 672c0 .5.5 1 1.1 1 .5 0 .7-.5.4-1-.3-.6-.8-1-1.1-1-.2 0-.4.4-.4 1zM171.3 674.5c0 .8.4 1.2.9.9.5-.3.6-1 .3-1.5-.9-1.3-1.2-1.1-1.2.6zM849 675c-1.1.7-1.1 1-.2 1 .8 0 1 .5.6 1.2s-.3.9.1.5c.7-.6 1.7-3.7 1.2-3.7-.1 0-.9.5-1.7 1zM855.6 676.7c-.6 1.4-.5 1.5.5.6.7-.7 1-1.5.7-1.8-.3-.3-.9.2-1.2 1.2zM846.6 679.7c-.6 1.4-.5 1.5.5.6.7-.7 1-1.5.7-1.8-.3-.3-.9.2-1.2 1.2zM175 679.4c0 .2.9.6 2 .9 1.1.3 1.8.1 1.4-.4-.5-.9-3.4-1.3-3.4-.5zM175 681.4c0 .2.7.7 1.6 1 .8.3 1.2.2.9-.4-.6-1-2.5-1.4-2.5-.6zM843.5 682c-.3.5-.1 1 .4 1 .6 0 1.1-.5 1.1-1 0-.6-.2-1-.4-1-.3 0-.8.4-1.1 1zM848.6 681.8c-.3.5.1.9.9.9s1.2-.4.9-.9c-.3-.4-.7-.8-.9-.8-.2 0-.6.4-.9.8zM179 683.7c0 .6.8 1.7 1.8 2.4 1.6 1.3 1.6 1.3.2-.6-.8-1.1-1.6-2.2-1.7-2.4-.2-.2-.3 0-.3.6zM842.7 685.4c-.4 1-.1 1.3.8.9.8-.3 1.2-.9.9-1.4-.7-1.2-1.1-1.1-1.7.5zM183.4 692.6c.1.8.4 1.5.7 1.6.2.2.3.1.2-.1-.2-.2.2-.9.7-1.6.7-.8.5-1.2-.4-1.2-.8 0-1.3.6-1.2 1.3zM186.6 693.7c-.6 1.4-.5 1.5.5.6.7-.7 1-1.5.7-1.8-.3-.3-.9.2-1.2 1.2zM836.1 698.4c-.7.8-2.1 1.3-3.2 1.1-1-.2-1.9 0-1.9.6 0 1.2 3.4.6 5.2-.9.8-.6 1.9-.8 2.3-.4.5.4.5.1.1-.6-.9-1.5-1.1-1.5-2.5.2zM195 704c0 .5.5 1 1.1 1 .5 0 .7-.5.4-1-.3-.6-.8-1-1.1-1-.2 0-.4.4-.4 1zM833.5 704c.3.5.8 1 1.1 1 .2 0 .4-.5.4-1 0-.6-.5-1-1.1-1-.5 0-.7.4-.4 1zM826 706.4c0 .2.7.7 1.6 1 .8.3 1.2.2.9-.4-.6-1-2.5-1.4-2.5-.6zM197 708.1c0 .5.5.7 1 .4.6-.3 1-.8 1-1.1 0-.2-.4-.4-1-.4-.5 0-1 .5-1 1.1zM198 710c-.9.6-1 1-.3 1 .6 0 1.5-.5 1.8-1 .8-1.2.4-1.2-1.5 0zM821.4 714.1c-.4.7-.3.9.4.5.5-.3 1.2 0 1.5.6.2.7.7 1 1.1.7.4-.3 0-1.2-.8-1.8-1.1-.9-1.6-.9-2.2 0zM827.5 714c-.3.5-.1 1 .4 1 .6 0 1.1-.5 1.1-1 0-.6-.2-1-.4-1-.3 0-.8.4-1.1 1zM207.3 721.5c0 .8.4 1.5.9 1.5.4 0 .8-.4.8-.9 0-.6-.4-1.2-.8-1.5-.5-.3-.9.1-.9.9zM816 720.4c0 .2.7.7 1.6 1 .8.3 1.2.2.9-.4-.6-1-2.5-1.4-2.5-.6zM816 724c-.9.6-1 1-.3 1 .6 0 1.5-.5 1.8-1 .8-1.2.4-1.2-1.5 0zM809.6 730.2c.3.5 1 .6 1.5.3 1.3-.9 1.1-1.2-.6-1.2-.8 0-1.2.4-.9.9zM813 730.1c0 .5.5.7 1 .4.6-.3 1-.8 1-1.1 0-.2-.4-.4-1-.4-.5 0-1 .5-1 1.1zM214.9 734.3c.6.8.7 1.8.3 2.2-.4.5-.1.5.6.1 1-.6 1-1.1.1-2.2-.6-.8-1.4-1.4-1.6-1.4-.3 0 0 .6.6 1.3zM810.5 734c-.3.6.1.7.9.4 1.8-.7 2.1-1.4.7-1.4-.6 0-1.3.4-1.6 1zM806 735.4c0 .2.8 1 1.8 1.7 1.5 1.3 1.6 1.2.3-.4s-2.1-2.1-2.1-1.3zM219.6 737.8c-.3.5.1.9.9.9s1.2-.4.9-.9c-.3-.4-.7-.8-.9-.8-.2 0-.6.4-.9.8zM803.1 739c-1.3 1.1-1.9 2-1.4 2 .6 0 1.8-.9 2.8-2 2.3-2.5 1.7-2.5-1.4 0zM804.6 741.8c-.3.5.1.9.9.9s1.2-.4.9-.9c-.3-.4-.7-.8-.9-.8-.2 0-.6.4-.9.8zM799.5 742.9c-.3.5-.2 1.2.3 1.5.5.3.9-.1.9-.9 0-1.7-.3-1.9-1.2-.6zM215.3 744.5c0 .8.4 1.2.9.9.5-.3.6-1 .3-1.5-.9-1.3-1.2-1.1-1.2.6zM222.7 744.1c.7.7 1.5 1 1.8.7.3-.3-.2-.9-1.2-1.2-1.4-.6-1.5-.5-.6.5zM219.5 745.9c-.3.5-.2 1.2.3 1.5.5.3.9-.1.9-.9 0-1.7-.3-1.9-1.2-.6zM225.9 745.2c0 .2-.2 1.3-.3 2.5-.2 1.9 0 2.1 1.2 1.1.9-.8 1-1.4.3-1.6-.6-.2-.9-.8-.5-1.3.3-.5.3-.9 0-.9s-.6.1-.7.2zM227.7 751.4c-.3.8.2 2 1.1 2.7 1.4 1.1 1.5 1.1.5 0-.6-.7-.9-2-.6-2.7.3-.8.3-1.4 0-1.4s-.7.6-1 1.4zM791.5 756.6c-1.6 1.3-2.2 2.2-1.3 1.8 1.3-.4 1.6-.1 1.3 1.5-.2 1.2 0 1.9.5 1.6.4-.3.7-1.3.5-2.3-.1-.9.4-2.5 1.3-3.5 2.1-2.4 1.2-2.1-2.3.9zM235.5 762c-.3.6.1.7.9.4 1.8-.7 2.1-1.4.7-1.4-.6 0-1.3.4-1.6 1zM235.9 764.7c-1.3 1.7-1.3 1.7.6.3 1.1-.8 2.2-1.6 2.4-1.7.2-.2 0-.3-.6-.3s-1.7.8-2.4 1.7zM238 766c-.8.5-1 1-.5 1 .6 0 1.7-.5 2.5-1s1.1-1 .5-1c-.5 0-1.7.5-2.5 1zM241.6 768.3c.3 1 .9 1.5 1.2 1.2.3-.3 0-1.1-.7-1.8-1-.9-1.1-.8-.5.6zM237.6 769.3c.3 1 .9 1.5 1.2 1.2.3-.3 0-1.1-.7-1.8-1-.9-1.1-.8-.5.6zM779.9 773.2c-.5 1.6-.4 4.6.2 4.2.4-.2.7-1.3.6-2.4-.1-1.7-.5-2.6-.8-1.8zM775 776.4c0 .2.7.9 1.5 1.6 1.3 1.1 1.4 1 .9-.4-.5-1.4-2.4-2.3-2.4-1.2zM246.5 780c-.3.6.1.7.9.4 1.8-.7 2.1-1.4.7-1.4-.6 0-1.3.4-1.6 1zM251.5 785c-.4.6-1.1.7-1.7.4-.7-.4-.8-.2-.4.5.6.9 1.2.9 2.4-.1 1-.7 1.9-1.4 2.1-1.5.2-.2-.1-.3-.7-.3s-1.4.5-1.7 1zM254.2 788c0 1.4.2 1.9.5 1.2.2-.6.2-1.8 0-2.5-.3-.6-.5-.1-.5 1.3zM769 788.2c0 .4.4.8.9.8.6 0 1.2-.4 1.5-.8.3-.5-.1-.9-.9-.9s-1.5.4-1.5.9zM764.4 794.1c-.3.6-.2 1.5.4 2.1.6.6 1.2.6 1.7-.3.6-.8.4-1-.5-.4-1 .6-1.2.4-.7-.8.7-1.9.2-2.3-.9-.6zM257 797.4c0 .2.7.7 1.6 1 .8.3 1.2.2.9-.4-.6-1-2.5-1.4-2.5-.6zM262.6 799.7c-.6 1.4-.5 1.5.5.6.7-.7 1-1.5.7-1.8-.3-.3-.9.2-1.2 1.2zM760.4 799.6c-1 .8-1.4 1.3-.7 1 .6-.4 1.3-.1 1.5.6.3.7.7.2 1-1 .7-2.6.7-2.6-1.8-.6zM261.6 804.1c.4.8 3 .6 3.8-.2.3-.3-.5-.5-1.9-.5-1.3 0-2.2.3-1.9.7zM266.7 805.3c-.3.8.3 1.4 1.6 1.5 1.2 0 1.7-.2 1.2-.6-.6-.4-1.3-1.1-1.6-1.5-.4-.4-.9-.2-1.2.6zM755.6 806.2c.3.5 1 .6 1.5.3 1.3-.9 1.1-1.2-.6-1.2-.8 0-1.2.4-.9.9zM265.6 809.8c-.3.5.1.9.9.9s1.2-.4.9-.9c-.3-.4-.7-.8-.9-.8-.2 0-.6.4-.9.8zM270.6 811.7c-.6 1.4-.5 1.5.5.6.7-.7 1-1.5.7-1.8-.3-.3-.9.2-1.2 1.2zM750.9 811.7c-1.3 1.6-1.2 1.7.4.4 1.6-1.3 2.1-2.1 1.3-2.1-.2 0-1 .8-1.7 1.7zM749.5 816.1c-.4.6-.4 1.3-.1 1.6.3.4.6.1.6-.6s.5-.9 1.2-.5.8.3.4-.4c-.9-1.5-1.3-1.5-2.1-.1zM273 817.9c0 .6.4 1.3 1 1.6.6.3.7-.1.4-.9-.7-1.8-1.4-2.1-1.4-.7zM746.1 819.6c0 1.1.3 1.4.6.6.3-.7.2-1.6-.1-1.9-.3-.4-.6.2-.5 1.3zM273 822.1c0 .5.5.7 1 .4.6-.3 1-.8 1-1.1 0-.2-.4-.4-1-.4-.5 0-1 .5-1 1.1zM277.9 823.3c.7.9 1.7 1.5 2.1 1.2.5-.3 1.1 0 1.3.5.3.6.4.5.3-.2-.2-.7-.7-1.3-1.2-1.3s-1.6-.4-2.4-1c-1.3-.8-1.3-.7-.1.8zM743.3 825.5c0 .7.6 1.1 1.4.8.7-.3 1.3-.6 1.3-.8 0-.2-.6-.5-1.3-.8-.8-.3-1.4.1-1.4.8zM279.9 828.7c-1.3 1.6-1.2 1.7.4.4 1.6-1.3 2.1-2.1 1.3-2.1-.2 0-1 .8-1.7 1.7zM741 830.4c0 .2.8 1 1.8 1.7 1.5 1.3 1.6 1.2.3-.4s-2.1-2.1-2.1-1.3zM282.6 831.8c-.3.5.1.9.9.9s1.2-.4.9-.9c-.3-.4-.7-.8-.9-.8-.2 0-.6.4-.9.8zM736.6 831.9c-.3.5.1 1.1.9 1.4.9.4 1.2.1.8-.9-.6-1.6-1-1.7-1.7-.5zM735 835.9c0 .6.5 1.3 1.2 1.7.6.4.8.3.4-.4-.3-.5 0-1.3.6-1.5.8-.3.6-.6-.4-.6-1-.1-1.8.3-1.8.8zM282.9 837.7c-1.3 1.6-1.2 1.7.4.4 1.6-1.3 2.1-2.1 1.3-2.1-.2 0-1 .8-1.7 1.7zM729.4 843.1c-.3.6-.2 1.5.3 2s.9.1.9-1.1c0-2.3-.2-2.4-1.2-.9zM290 844c.8.5 2 1 2.5 1 .6 0 .3-.5-.5-1s-1.9-1-2.5-1c-.5 0-.3.5.5 1zM294.5 846c-.3.6.1.7.9.4 1.8-.7 2.1-1.4.7-1.4-.6 0-1.3.4-1.6 1zM291.5 846.9c-.3.5-.2 1.2.3 1.5.5.3.9-.1.9-.9 0-1.7-.3-1.9-1.2-.6zM296 848c-.9.6-1 1-.3 1 .6 0 1.5-.5 1.8-1 .8-1.2.4-1.2-1.5 0zM727 848c0 .5.5 1 1 1 .6 0 1-.5 1-1 0-.6-.4-1-1-1-.5 0-1 .4-1 1zM297.9 849.2c-.6 1.9-.3 5 .5 5.5.6.3.8.3.4-.2-.4-.4-.3-1.4.3-2.2.9-1 .8-1.3 0-1.3-.7 0-.9-.5-.6-1 .3-.6.4-1 .1-1-.3 0-.6.1-.7.2zM721.7 855.5c-.4.8-.3 1.6.1 1.9.4.3.9-.4.9-1.5.2-2.3-.3-2.5-1-.4zM303 861.5c0 .7 3 1.3 3.4.7.3-.4-.4-.9-1.5-.9-1-.1-1.9 0-1.9.2zM717.3 862.5c-.3.9-.3 1.8-.1 2.1.3.3.8-.4 1.1-1.6.6-2.3-.1-2.7-1-.5zM307 864c0 .5.5 1 1.1 1 .5 0 .7-.5.4-1-.3-.6-.8-1-1.1-1-.2 0-.4.4-.4 1zM713 867c-1.1.7-1.1 1-.2 1 .8 0 1 .5.6 1.2s-.3.9.1.5c.7-.6 1.7-3.7 1.2-3.7-.1 0-.9.5-1.7 1zM307.5 868.9c-.3.5-.2 1.2.3 1.5.5.3.9-.1.9-.9 0-1.7-.3-1.9-1.2-.6zM311 869.8c0 .5.7.9 1.5.9s1.2-.4.9-.9c-.3-.4-.9-.8-1.5-.8-.5 0-.9.4-.9.8zM710.5 874c-.3.6.1.7.9.4 1.8-.7 2.1-1.4.7-1.4-.6 0-1.3.4-1.6 1zM705.4 878.1c-1.4 2.3 1.3 2.9 3.2.7l1.9-2.3-2.4 2c-2.1 1.8-2.4 1.8-1.8.2.7-1.9.2-2.3-.9-.6zM711.6 877.8c-.3.5.1.9.9.9s1.2-.4.9-.9c-.3-.4-.7-.8-.9-.8-.2 0-.6.4-.9.8zM703 881.9c0 .5.8 1.5 1.8 2.2 1.5 1.2 1.6 1.2.5-.2-.7-.9-1-1.9-.6-2.2.3-.4.1-.7-.5-.7-.7 0-1.2.4-1.2.9zM322.9 887.7c-1.3 1.6-1.2 1.7.4.4 1.6-1.3 2.1-2.1 1.3-2.1-.2 0-1 .8-1.7 1.7zM698.7 888.7c.5 1.2.3 1.4-.8.8-.8-.5-1.1-.4-.6 0 .4.5 1.4 1 2.2 1.1 1.2.2 1.2-.2.5-1.7-1.3-2.3-2.2-2.5-1.3-.2zM326 891c0 .5-.6.7-1.4.4-.8-.3-1.6-.1-2 .4-.3.5.5.8 1.6.7 1.9-.1 4.1-2.5 2.4-2.5-.3 0-.6.4-.6 1zM694.5 894c-.3.6.1.7.9.4 1.8-.7 2.1-1.4.7-1.4-.6 0-1.3.4-1.6 1zM698.7 894.1c.7.7 1.5 1 1.8.7.3-.3-.2-.9-1.2-1.2-1.4-.6-1.5-.5-.6.5zM692 902c-.9.6-1 1-.3 1 .6 0 1.5-.5 1.8-1 .8-1.2.4-1.2-1.5 0zM688.6 903.7c-.6 1.4-.5 1.5.5.6.7-.7 1-1.5.7-1.8-.3-.3-.9.2-1.2 1.2zM334.9 908.3c.6.8.7 1.8.3 2.2-.4.5-.1.5.6.1 1-.6 1-1.1.1-2.2-.6-.8-1.4-1.4-1.6-1.4-.3 0 0 .6.6 1.3zM682 912c0 .5.5 1 1.1 1 .5 0 .7-.5.4-1-.3-.6-.8-1-1.1-1-.2 0-.4.4-.4 1zM681 914.9c0 .6.4 1.3 1 1.6.6.3.7-.1.4-.9-.7-1.8-1.4-2.1-1.4-.7zM675.3 923.7c-.3 1-.8 2.1-1 2.5-.2.4.2.5.9.3.8-.3 1.4-1.4 1.4-2.5 0-2.5-.5-2.5-1.3-.3zM347 926.4c.4.4 1.6.4 2.6-.2 1.6-.9 1.4-1-.8-.9-1.5.1-2.3.6-1.8 1.1zM667.5 934c-.3.6.1.7.9.4 1.8-.7 2.1-1.4.7-1.4-.6 0-1.3.4-1.6 1zM353.5 938.1c-.3.4.2.6 1 .5 2.1-.3 2.8-1.3 1-1.3-.9 0-1.8.4-2 .8zM358.6 938.4c.5 1.2.4 1.7-.3 1.3-.5-.3-1 .1-1 .9 0 1.3.2 1.3 1.6 0 1.2-1.3 1.3-1.8.2-2.8-1-1.1-1.1-.9-.5.6zM665.2 938.7c-.7.2-1.6 1.2-2.1 2.2-.7 1.3-.5 1.7 1 1.7 1.2 0 1.5-.4.9-1s-.3-1.4.8-2.2c1.8-1.4 1.6-1.6-.6-.7zM361.7 944.4c-.4 1-.1 1.3.8.9.8-.3 1.2-.9.9-1.4-.7-1.2-1.1-1.1-1.7.5zM361 949.4c0 .2.7.7 1.6 1 .8.3 1.2.2.9-.4-.6-1-2.5-1.4-2.5-.6zM658 952c-.8.5-1 1-.5 1 .6 0 1.7-.5 2.5-1s1.1-1 .5-1c-.5 0-1.7.5-2.5 1zM658.9 955.7c-1.3 1.6-1.2 1.7.4.4.9-.7 1.7-1.5 1.7-1.7 0-.8-.8-.3-2.1 1.3zM655.9 955.2c-.5 1.8-.6 3.8-.1 3.4.7-.8 1.2-3.6.6-3.6-.2 0-.4.1-.5.2zM371.9 961.2c-.5 1.8-.6 3.8-.1 3.4.7-.8 1.2-3.6.6-3.6-.2 0-.4.1-.5.2zM649 963c-.9.6-1 1-.3 1 .6 0 1.5-.5 1.8-1 .8-1.2.4-1.2-1.5 0zM376.5 968c.3.5.8 1 1.1 1 .2 0 .4-.5.4-1 0-.6-.5-1-1.1-1-.5 0-.7.4-.4 1zM649 970c0 .5.5 1 1.1 1 .5 0 .7-.5.4-1-.3-.6-.8-1-1.1-1-.2 0-.4.4-.4 1zM377.3 971.3c0 .8.6 1.4 1.4 1.4.9 0 1-.4.2-1.4-.6-.7-1.2-1.3-1.4-1.3-.1 0-.2.6-.2 1.3zM641.5 976.1c-.3.4.2.6 1 .5 2.1-.3 2.8-1.3 1-1.3-.9 0-1.8.4-2 .8zM383 978c0 .5.5 1 1.1 1 .5 0 .7-.5.4-1-.3-.6-.8-1-1.1-1-.2 0-.4.4-.4 1zM639 979.9c0 .6.4 1.3 1 1.6.6.3.7-.1.4-.9-.7-1.8-1.4-2.1-1.4-.7zM384.6 981.8c-.3.5.1.9.9.9s1.2-.4.9-.9c-.3-.4-.7-.8-.9-.8-.2 0-.6.4-.9.8zM630 985.9c-.5 1.1-1 2.6-.9 3.3 0 .7.5.1 1.1-1.5.5-1.5 1.4-2.4 2-2.1.7.4.8.2.4-.4-1-1.6-1.4-1.5-2.6.7zM389.3 987.4c0 .9.7 1.2 1.6.8 1.3-.5 1.4-.3.4.9-1 1.3-1 1.6.1 1.6 1.8 0 1.4-2.7-.6-3.8-1-.5-1.5-.4-1.5.5zM620 990c-1.4.9-.8 1.2 1.7.9.4 0 1 .8 1.4 1.8.6 1.5.8 1.5.8.2.1-2.4-2.1-4-3.9-2.9zM627 989.7c0 .6.8 1.7 1.8 2.4 1.6 1.3 1.6 1.3.2-.6-.8-1.1-1.6-2.2-1.7-2.4-.2-.2-.3 0-.3.6zM632 990c-.9.6-1 1-.3 1 .6 0 1.5-.5 1.8-1 .8-1.2.4-1.2-1.5 0zM394.8 990.7c.7.3 1.6.2 1.9-.1.4-.3-.2-.6-1.3-.5-1.1 0-1.4.3-.6.6zM617.7 992.1c.7.7 1.5 1 1.8.7.3-.3-.2-.9-1.2-1.2-1.4-.6-1.5-.5-.6.5zM398.8 993.6c.6.3 1 1 .7 1.4-.3.5-.1 1.2.5 1.5.6.4.9.1.8-.7-.2-.7.4-1.2 1.2-1 .8.2 1.2 0 .7-.4-.4-.4-1.8-.9-3-1-1.2-.2-1.6 0-.9.2zM615.6 994.7c-.6 1.4-.5 1.5.5.6.7-.7 1-1.5.7-1.8-.3-.3-.9.2-1.2 1.2zM410.1 994.9c-.8.5-.9 1.1-.3 1.5.5.3 1.2-.1 1.6-.9.6-1.7.6-1.8-1.3-.6zM413.9 996.3c.6.8.7 1.8.3 2.3-.4.4.1.2 1.1-.5.9-.7 1.7-1.9 1.7-2.5 0-.6-.5-.4-1 .4-.6 1-1 1.1-1 .2 0-.6-.5-1.2-1.1-1.2-.8 0-.9.4 0 1.3zM606 996.2c0 1.1 2.2 1 3.9-.1 1-.7.7-.9-1.2-.8-1.5.1-2.7.5-2.7.9zM618 995.8c0 .5.7.9 1.5.9s1.5-.4 1.5-.9c0-.4-.7-.8-1.5-.8s-1.5.4-1.5.8zM417.5 998c-.3.5-.3 1 .2 1.1.4 0-.1.4-1.1.8-1.9.7-1.9.8.1 1.3 1.7.5 2.1.2 1.8-1.4-.3-1.2 0-1.8.8-1.5.7.3 1.1 1 .9 1.6-.1.7.2 1 .7.6 1.4-.8.2-3.5-1.4-3.5-.8 0-1.7.4-2 1zM601 998.1c0 .5.5.7 1 .4.6-.3 1-.8 1-1.1 0-.2-.4-.4-1-.4-.5 0-1 .5-1 1.1zM609.6 997.9c-.3.5.1 1.4.9 2.1.8.7 1.2 1.7.8 2.3-.4.6-.1.7.6.3.9-.6.8-1.3-.6-2.9-1.7-2-1.7-2 0-1.4 1.1.4 1.6.3 1.2-.3-.8-1.2-2.2-1.3-2.9-.1zM424.6 999.5c-.3.8-.1 1.5.3 1.5.5 0 1.1-.7 1.5-1.5.3-.8.1-1.5-.3-1.5-.5 0-1.1.7-1.5 1.5zM427.6 1000.5c-.9 2.6-.7 3.2.5 1.2.6-1 .9-2.1.6-2.3-.2-.3-.7.2-1.1 1.1zM595.6 1000.2c.3.5 1.4.6 2.5.3 1.3-.4 1.8-.2 1.6.7-.2.7-.2 1 0 .5.3-.4 1-.4 1.6 0 .8.4.7.1-.1-.9-1.3-1.6-6.6-2.2-5.6-.6zM605.5 999.9c-.3.5 0 1.3.6 1.7.8.5.9.3.4-.6-.6-1-.4-1.2.9-.7 1 .4 1.5.3 1.1-.3-.8-1.3-2.2-1.3-3-.1zM430.3 1001.2c-1.2 1.5-1.3 4.9-.2 4.2.5-.2.5-1.2.2-2.1-.5-1.2-.3-1.4.7-.8.9.5 1.1.4.6-.3-1-1.6.2-1.5 1.8.1.7.7 1.1 1.9.9 2.7-.4 1.3-.3 1.3.6 0 .7-1 .6-1.9-.6-3.2-1.9-2.1-2.7-2.2-4-.6zM593.4 1000.9c.3.5-.1 1.1-.9 1.5-1.7.6-2 2.6-.4 2.6.5 0 .7-.5.4-1-.6-.9.8-1.5 2.9-1.1.5.1.4-.5-.4-1.3-1.3-1.7-2.5-2.2-1.6-.7zM409 1001.4c0 .2.7.7 1.6 1 .8.3 1.2.2.9-.4-.6-1-2.5-1.4-2.5-.6zM421.6 1001.9c-.8 1.2 1.4 2.8 3.7 2.8 2.2 0 1.1-1.2-1.1-1.2-.9 0-1.6-.6-1.4-1.3.2-1.4-.4-1.6-1.2-.3zM437.3 1002.2c-.3.7-.1.8.5.4 1.2-.7 1.6.4 1.3 3.4-.2 1.3-.1 1.3.8 0 .5-.8.8-1.7.5-2.1-.2-.4.1-.9.8-1.1.7-.3.2-.7-1-1-1.2-.4-2.5-.1-2.9.4zM447 1003.5c0 .5.5 1.7 1 2.5s1 1 1 .5c0-.6-.5-1.7-1-2.5s-1-1.1-1-.5zM583.6 1004.5c-.9 2.6-.7 3.2.5 1.2.6-1 .9-2.1.6-2.3-.2-.3-.7.2-1.1 1.1zM601.5 1004c.5.8 4.2.6 5-.1.2-.3-.8-.5-2.5-.5-1.6 0-2.7.3-2.5.6zM450.8 1005.2c.5.5 1.6.8 2.3.6.8-.3.3-.7-1-1.1-1.7-.4-2.1-.3-1.3.5zM575 1005c0 .6.7 1 1.5 1s1.5-.2 1.5-.4-.7-.6-1.5-1c-.8-.3-1.5-.1-1.5.4zM441.9 1005.3c-.6 2-.5 3.6.2 3.1.5-.3.9 0 .9.7s.3.9.6.6c.4-.4.1-1.3-.5-2.1-1-1.2-.9-1.5.8-1.3 1.4.1 2 .6 1.6 1.5-.3.7 0 1 .6.7 1.6-1 .5-2.8-1.9-3.2-1.2-.1-2.2-.2-2.3 0zM460.6 1007.1c.5 2.1.4 2.2-.6.6-.6-.9-1.6-1.7-2.1-1.7-.6 0-.3.7.5 1.6.9.8 1.4 2 1.1 2.5-.4.5-.2.9.4.9 1.5 0 2.5-4 1.3-5.2-.8-.8-.9-.4-.6 1.3zM565 1005.4c0 .2.7.9 1.5 1.6 1.3 1.1 1.4 1 .9-.4-.5-1.4-2.4-2.3-2.4-1.2zM585.6 1005.9c-.3.5 0 1.4.8 2 1 .9 1.5.8 1.9-.3.4-1.1.1-1.3-1-.9s-1.4.2-.9-.5c.4-.7.5-1.2.2-1.2s-.7.4-1 .9zM455.2 1008c0 1.4.2 1.9.5 1.2.2-.6.2-1.8 0-2.5-.3-.6-.5-.1-.5 1.3zM557.2 1007.2c.3.7 1.2 1.4 2.2 1.4 1.3.2 1.3.1.1-.3-.8-.2-1.3-.9-1-1.4.4-.5.1-.9-.5-.9-.7 0-1 .6-.8 1.2zM560 1006.4c0 .2.7.7 1.6 1 .8.3 1.2.2.9-.4-.6-1-2.5-1.4-2.5-.6zM579.3 1007.4c0 .7.6 1.3 1.4 1.3.7 0 1.3-.4 1.3-.8s-.6-.9-1.3-1.2c-.8-.3-1.4 0-1.4.7zM427 1008.2c0 .4.4.8.9.8.6 0 1.2-.4 1.5-.8.3-.5-.1-.9-.9-.9s-1.5.4-1.5.9zM449.5 1008.1c-1.1 1.6-.1 1.9 1.3.3.7-.8.8-1.4.3-1.4s-1.3.5-1.6 1.1zM475 1008c0 .5.5 1 1.1 1 .5 0 .7-.5.4-1-.3-.6-.8-1-1.1-1-.2 0-.4.4-.4 1zM546.5 1008c-.3.5-.1 1 .4 1 .6 0 1.1-.5 1.1-1 0-.6-.2-1-.4-1-.3 0-.8.4-1.1 1zM549.5 1008c-.3.5-.3 1 .2 1.1.4 0-.1.5-1.2 1-1.9.8-1.9.9-.1.6 1.1-.1 2-1 2.2-2 .3-1.9-.2-2.2-1.1-.7zM552.5 1008c-.3.5-.3 1 .1 1s-.1 1-1.2 2.2l-1.9 2.3 2.1-1.8c2.1-1.7 2.2-1.7 2.9 0 .5 1 .7 2.2.6 2.6-.1.5.3.6.9.2.7-.4.3-1.7-1-3.4-1-1.6-1.7-3.1-1.3-3.5.3-.3.4-.6 0-.6-.3 0-.9.4-1.2 1zM562.7 1009c-1.6 1.6-1.6 1.8.5 3.6 2.3 1.8 2.3 1.8.6-.1-1.6-1.7-1.6-1.9 0-3.1.9-.7 1.5-1.4 1.2-1.7-.3-.2-1.3.3-2.3 1.3zM569 1007.8c0 .4 1 .9 2.2.9 1.8.2 2 0 .8-.7-1.8-1.2-3-1.3-3-.2zM478 1009.5c-.9 1-.9 1.5-.1 1.5.6 0 1.1-.4 1.1-.9s.8-1.2 1.8-1.4c1.4-.4 1.4-.5.1-.6-.9 0-2.2.6-2.9 1.4zM541.7 1008.7c-.4.3-.7 1.1-.7 1.7 0 .6.5.5 1.2-.2.6-.6.9-1.4.7-1.7-.3-.3-.9-.2-1.2.2zM556.7 1010.1c1.2 1.2 2.4 2.1 2.7 1.8.2-.2-.8-1.3-2.2-2.3l-2.7-1.9 2.2 2.4zM583.3 1009.5c0 .8.4 1.2.9.9.5-.3.6-1 .3-1.5-.9-1.3-1.2-1.1-1.2.6zM462.4 1010.2c-.5.7-.3.8.6.3 1-.6 1.2-.4.6 1.1-.4 1-.4 1.5 0 1.1.4-.4 1.4-.1 2.2.6 1.1.9 1.1.4-.2-1.6-2.1-3.1-2.2-3.1-3.2-1.5zM469.9 1009.2c-.6 2.1-.5 3.7.2 3.2.5-.3.7-.9.4-1.4-.3-.5.5-1.1 1.7-1.3l2.3-.4-2.2-.2c-1.3 0-2.3 0-2.4.1zM498.9 1011c1.3 1.1 2.8 2 3.5 1.9.6 0 .1-.5-1.1-1.1-1.3-.6-2.3-1.5-2.3-2 0-.4-.6-.8-1.2-.8-.7.1-.2 1 1.1 2zM501.5 1010c.3.5 1.1 1 1.6 1 .6 0 .7-.5.4-1-.3-.6-1.1-1-1.6-1-.6 0-.7.4-.4 1zM514.8 1010.3c-.9.7-1.3 1.8-1 2.4.5.7 1.2.2 1.9-1.3.6-1.3 1-2.4 1-2.4-.1 0-1 .6-1.9 1.3zM518.8 1010.4c-1 .7-1.8 1.9-1.8 2.7 0 .8.7.4 1.6-.9.8-1.2 2-2 2.5-1.7.5.4.9.1.9-.4 0-1.4-1.1-1.3-3.2.3zM523.9 1009.2c-.6 1.2-.4 4.6.2 4.2.4-.2.5-1.2.2-2.1-.4-1.1-.3-1.4.5-.9.7.4 1.2.2 1.2-.3 0-.9-1.7-1.6-2.1-.9zM532.7 1010.7c.5 1.1.3 1.4-.6.8-1-.6-1.1-.3-.2 1.4 1.4 2.5 2.3 2.8 1.4.4-.5-1.1-.3-1.4.6-.8 1 .6 1.1.3.2-1.4-1.4-2.5-2.3-2.8-1.4-.4zM543.9 1009.7c0 .5-.2 1.6-.4 2.6-.3 1.4-.1 1.6 1 .7.8-.6 1.1-1.8.8-2.6-.6-1.5-1.3-1.9-1.4-.7zM566 1009.4c0 .2.7.7 1.6 1 .8.3 1.2.2.9-.4-.6-1-2.5-1.4-2.5-.6zM574.8 1009.7c.6.2.9 1 .6 1.5-.4.7-.2.8.4.4 1.8-1.1 1.4-2.6-.5-2.5-1.1 0-1.3.3-.5.6zM475.1 1011.6c0 1.1.3 1.4.6.6.3-.7.2-1.6-.1-1.9-.3-.4-.6.2-.5 1.3zM481.6 1011.7c-.6 1.4-.5 1.5.5.6.7-.7 1-1.5.7-1.8-.3-.3-.9.2-1.2 1.2zM527 1011c0 .6.7 1 1.5 1s1.5-.2 1.5-.4-.7-.6-1.5-1c-.8-.3-1.5-.1-1.5.4zM450.6 1012.2c.3.4.9.8 1.5.8.5 0 .9-.4.9-.8 0-.5-.7-.9-1.5-.9s-1.2.4-.9.9zM455 1012.4c.7.7 1.3.7 2 0 .6-.6.3-1-1-1s-1.6.4-1 1zM538.1 1012c-.9.5-.4.7 1.3.7 2.9 0 3.2-.2 1.3-1-.8-.3-2-.2-2.6.3zM572 1012c-.9.6-1 1-.3 1 .6 0 1.5-.5 1.8-1 .8-1.2.4-1.2-1.5 0zM477.5 1013c-.3.6.1.7.9.4 1.8-.7 2.1-1.4.7-1.4-.6 0-1.3.4-1.6 1zM503.8 1013.2c-.7 1.7 1.5 1.9 2.9.3.4-.4.3-.5-.4-.2-.6.4-1.3.2-1.5-.5-.3-.8-.6-.6-1 .4zM519.5 1013.1c-1.1 1.6-.1 1.9 1.3.3.7-.8.8-1.4.3-1.4s-1.3.5-1.6 1.1zM470 1014c-.9.6-1 1-.3 1 .6 0 1.5-.5 1.8-1 .8-1.2.4-1.2-1.5 0zM489.5 1014c-.3.6.1.7.9.4 1.8-.7 2.1-1.4.7-1.4-.6 0-1.3.4-1.6 1zM493.4 1014.4c.1.8.5 1.8.8 2.2.4.3.5-.1.4-1-.1-.8-.5-1.8-.8-2.2-.4-.3-.5.1-.4 1zM497.6 1013.9c-.3.5.1 1.4.8 2 1 .9 1.6.9 2.1.1.4-.6.4-1.4.1-1.7-.3-.4-.6-.1-.6.6s-.5.9-1 .6c-.6-.4-.8-1.1-.5-1.6.4-.5.4-.9.1-.9-.3 0-.7.4-1 .9zM511.6 1014.7c-.6 1.4-.5 1.5.5.6.7-.7 1-1.5.7-1.8-.3-.3-.9.2-1.2 1.2zM525.5 1014.1c-.4.6-.5 1.2-.2 1.5.2.3.7-.2 1-1.1.7-1.7.1-2-.8-.4zM545.5 1014c-.3.5-.1 1 .4 1 .6 0 1.1-.5 1.1-1 0-.6-.2-1-.4-1-.3 0-.8.4-1.1 1zM513.9 1016.7c-1.3 1.6-1.2 1.7.4.4 1.4-1.1 2-1.1 3.5 0 1.5 1.3 1.6 1.2.3-.4-.7-.9-1.7-1.7-2.1-1.7-.4 0-1.4.8-2.1 1.7zM561.6 1015.8c-.3.5.1.9.9.9s1.2-.4.9-.9c-.3-.4-.7-.8-.9-.8-.2 0-.6.4-.9.8zM533.5 1018c-.3.5-.1 1 .4 1 .6 0 1.1-.5 1.1-1 0-.6-.2-1-.4-1-.3 0-.8.4-1.1 1z"/></svg>